<?xml version="1.0" encoding="utf-8"?>
<!-- Generator: Adobe Illustrator 26.5.0, SVG Export Plug-In . SVG Version: 6.00 Build 0)  -->
<svg version="1.1" id="Layer_2_00000075152746686283059800000006392401042933995426_"
	 xmlns="http://www.w3.org/2000/svg" xmlns:xlink="http://www.w3.org/1999/xlink" x="0px" y="0px" viewBox="0 0 500 500"
	 style="enable-background:new 0 0 500 500;" xml:space="preserve">
<style type="text/css">
	.st0{opacity:0.5;}
	.st1{fill:#6D6D6C;}
	.st2{fill:url(#SVGID_1_);}
	.st3{fill:url(#SVGID_00000101093849858416754470000012156780625228812432_);}
	.st4{fill:url(#SVGID_00000160157301488370633020000017320426393269559473_);}
	.st5{fill:url(#SVGID_00000019660333420575870130000000363223284490361729_);}
</style>
<g>
	<g class="st0">
		<path class="st1" d="M450.3,336.8v-0.2v-0.2c-1.9-20-6.3-38.8-14.4-53.9c-5.1-9.5-9.7-18.6-13.9-27.6l0,0c0-0.2,0-0.2-0.2-0.2
			C348.3,97.4,408.5,19.1,409.2,18.3c3-3.7,2.5-9.3-1.2-12.3c-3.7-3-9.3-2.5-12.3,1.2c-3,3.5-65.6,83.7,5.8,244.8
			c-138.1,39.1-260.6,9.8-294.2,0.2C178.4,90.9,111.9,10.7,108.7,7c-3.2-3.7-8.8-4-12.5-0.9c-3.7,3.2-4,8.8-0.9,12.5
			c0.7,0.9,72.7,87.4-22.5,264.1c-8.1,14.9-12.5,33.5-14.7,53.2v0.2v0.2C51,400.3,68,476.3,68.9,480.4c0.9,4,4.6,6.8,8.6,6.8
			c0.7,0,1.2,0,1.9-0.2c4.7-1.1,7.7-5.8,6.7-10.5c-0.2-0.9-15.6-70.4-11.2-129.7c26.5,3.5,106.2,16.1,146.4,44.6
			c0.7,0.5,10.2,7,24.7,9.1v86.7c0,4.9,3.9,8.8,8.8,8.8c4.9,0,8.8-3.9,8.8-8.8v-86.7c7.7-1.1,16-3.5,24.9-8.6l0.9-0.5
			c40-28.3,118.3-40.5,144.6-44.1c3.2,59.1-14,127.9-14.2,128.8c-1.2,4.7,1.6,9.5,6.3,10.7c0.7,0.2,1.4,0.4,2.1,0.4
			c3.9,0,7.5-2.6,8.4-6.7C437.3,476.3,456.2,400.7,450.3,336.8L450.3,336.8z M279.1,376.7c-26.9,14.7-47.2,0.9-48.1,0.4
			C187,345.8,104,332.8,76.4,329.3c2.3-14.4,6-27.6,11.8-38.3c4.2-7.7,7.9-15.1,11.4-22.6c20,6.1,77.9,21.4,155,21.4
			c45.8,0,98.6-5.6,154.1-21.6c3.5,7.4,7.4,15.1,11.6,22.8c6,10.9,9.5,24.4,11.4,39C404.8,333.1,323.2,345.8,279.1,376.7
			L279.1,376.7z"/>
		<path class="st1" d="M254.2,221c7.2,0,13-8.8,13-19.5c0-10.7-5.8-19.5-13-19.5c-7.2,0-13,8.8-13,19.5
			C241.2,212.2,247,221,254.2,221z"/>
		<path class="st1" d="M150.5,195.9c1.2,0.5,2.5,0.7,3.5,0.7c3.3,0,6.7-1.9,8.1-5.3c23.5-53.2,6.7-136,6-139.5
			c-1.1-4.7-5.6-7.7-10.4-6.8c-4.7,1.1-7.7,5.6-6.8,10.4c0.2,0.9,16.5,80.7-4.7,128.8C144.2,188.7,146.1,193.8,150.5,195.9
			L150.5,195.9z"/>
		<path class="st1" d="M353.5,196.6c1.2,0,2.5-0.2,3.5-0.7c4.4-1.9,6.5-7.2,4.4-11.6c-21.2-48.1-4.9-127.9-4.7-128.6
			c1.1-4.7-2.1-9.5-6.8-10.4c-4.7-1.1-9.5,2.1-10.4,6.8c-0.7,3.5-17.7,86.2,6,139.5C346.9,194.6,350.2,196.6,353.5,196.6
			L353.5,196.6z"/>
	</g>
	<g>
		<g>
			
				<linearGradient id="SVGID_1_" gradientUnits="userSpaceOnUse" x1="54.6385" y1="-218" x2="449.6596" y2="-218" gradientTransform="matrix(1 0 0 1 0 468)">
				<stop  offset="0" style="stop-color:#1ED6FF"/>
				<stop  offset="1" style="stop-color:#5D4AFF"/>
			</linearGradient>
			<path class="st2" d="M448.5,336.8v-0.2v-0.2c-1.9-20-6.3-38.8-14.4-53.9c-5.1-9.5-9.7-18.6-13.9-27.6l0,0c0-0.2,0-0.2-0.2-0.2
				C346.5,97.4,406.7,19.1,407.4,18.3c3-3.7,2.5-9.3-1.2-12.3c-3.7-3-9.3-2.5-12.3,1.2c-3,3.5-65.6,83.7,5.8,244.8
				c-138.1,39.1-260.6,9.8-294.2,0.2C176.6,90.9,110.1,10.7,107,7c-3.2-3.7-8.8-4-12.5-0.9c-3.7,3.2-4,8.8-0.9,12.5
				c0.7,0.9,72.7,87.4-22.5,264.1c-8.1,14.9-12.5,33.5-14.7,53.2v0.2v0.2c-7.2,64.1,9.8,140.1,10.7,144.1c0.9,4,4.6,6.8,8.6,6.8
				c0.7,0,1.2,0,1.9-0.2c4.7-1.1,7.7-5.8,6.7-10.5c-0.2-0.9-15.6-70.4-11.2-129.7c26.5,3.5,106.2,16.1,146.4,44.6
				c0.7,0.5,10.2,7,24.7,9.1v86.7c0,4.9,3.9,8.8,8.8,8.8s8.8-3.9,8.8-8.8v-86.7c7.7-1.1,16-3.5,24.9-8.6l0.9-0.5
				c40-28.3,118.3-40.5,144.6-44.1c3.2,59.1-14,127.9-14.2,128.8c-1.2,4.7,1.6,9.5,6.3,10.7c0.7,0.2,1.4,0.4,2.1,0.4
				c3.9,0,7.5-2.6,8.4-6.7C435.5,476.3,454.5,400.7,448.5,336.8L448.5,336.8z M277.4,376.7c-26.9,14.7-47.2,0.9-48.1,0.4
				c-44.1-31.2-127.1-44.2-154.6-47.7c2.3-14.4,6-27.6,11.8-38.3c4.2-7.7,7.9-15.1,11.4-22.6c20,6.1,77.9,21.4,155,21.4
				c45.8,0,98.6-5.6,154.1-21.6c3.5,7.4,7.4,15.1,11.6,22.8c6,10.9,9.5,24.4,11.4,39C403,333.1,321.4,345.8,277.4,376.7L277.4,376.7
				z"/>
			
				<linearGradient id="SVGID_00000049942032856145620190000006783462955221461152_" gradientUnits="userSpaceOnUse" x1="239.4656" y1="-266.5075" x2="265.5115" y2="-266.5075" gradientTransform="matrix(1 0 0 1 0 468)">
				<stop  offset="0" style="stop-color:#1ED6FF"/>
				<stop  offset="1" style="stop-color:#5D4AFF"/>
			</linearGradient>
			<path style="fill:url(#SVGID_00000049942032856145620190000006783462955221461152_);" d="M252.5,221c7.2,0,13-8.8,13-19.5
				c0-10.7-5.8-19.5-13-19.5s-13,8.8-13,19.5C239.5,212.2,245.3,221,252.5,221z"/>
			
				<linearGradient id="SVGID_00000166655696457800337330000011947523368536672642_" gradientUnits="userSpaceOnUse" x1="143.591" y1="-347.319" x2="172.8705" y2="-347.319" gradientTransform="matrix(1 0 0 1 0 468)">
				<stop  offset="0" style="stop-color:#1ED6FF"/>
				<stop  offset="1" style="stop-color:#5D4AFF"/>
			</linearGradient>
			<path style="fill:url(#SVGID_00000166655696457800337330000011947523368536672642_);" d="M148.7,195.9c1.2,0.5,2.5,0.7,3.5,0.7
				c3.3,0,6.7-1.9,8.1-5.3c23.5-53.2,6.7-136,6-139.5c-1.1-4.7-5.6-7.7-10.4-6.8c-4.7,1.1-7.7,5.6-6.8,10.4
				c0.2,0.9,16.5,80.7-4.7,128.8C142.4,188.7,144.3,193.8,148.7,195.9L148.7,195.9z"/>
			
				<linearGradient id="SVGID_00000070096574425709399090000002760293556078880649_" gradientUnits="userSpaceOnUse" x1="331.2722" y1="-347.1685" x2="360.5692" y2="-347.1685" gradientTransform="matrix(1 0 0 1 0 468)">
				<stop  offset="0" style="stop-color:#1ED6FF"/>
				<stop  offset="1" style="stop-color:#5D4AFF"/>
			</linearGradient>
			<path style="fill:url(#SVGID_00000070096574425709399090000002760293556078880649_);" d="M351.8,196.6c1.2,0,2.5-0.2,3.5-0.7
				c4.4-1.9,6.5-7.2,4.4-11.6c-21.2-48.1-4.9-127.9-4.7-128.6c1.1-4.7-2.1-9.5-6.8-10.4c-4.7-1.1-9.5,2.1-10.4,6.8
				c-0.7,3.5-17.7,86.2,6,139.5C345.1,194.6,348.5,196.6,351.8,196.6L351.8,196.6z"/>
		</g>
	</g>
</g>
</svg>
