<?xml version="1.0" encoding="utf-8"?>
<!-- Generator: Adobe Illustrator 26.5.0, SVG Export Plug-In . SVG Version: 6.00 Build 0)  -->
<svg version="1.1" id="Layer_2_00000057119667155193835490000003819905187585936527_"
	 xmlns="http://www.w3.org/2000/svg" xmlns:xlink="http://www.w3.org/1999/xlink" x="0px" y="0px" viewBox="0 0 500 500"
	 style="enable-background:new 0 0 500 500;" xml:space="preserve">
<style type="text/css">
	.st0{opacity:0.5;}
	.st1{fill:#6D6D6C;}
	.st2{fill:url(#SVGID_1_);}
</style>
<g>
	<g class="st0">
		<path class="st1" d="M382.1,197.6L367.8,15.7c-0.4-4.8-4.6-8.4-9.3-8c-4.6,0.4-7.8,4.1-7.8,8.7c0,0.2,0,0.4,0,0.5l14.1,181.9
			c0.5,7.7-2,15.1-6.9,21l-64.5,101.6c-7.3,8.2-20.8,9.1-29.2,2c-4.3-3.6-6.9-8.7-7.3-14.3c-0.4-5.7,1.2-11,5-15.3l57.7-93.2
			c2-3.2,2.9-6.8,2.5-10l-7.8-174.4v-0.2c-0.2-4.8-4.5-8.6-9.1-8.2c-4.8,0.2-8.4,4.3-8.2,9.1l8,175l-57,91.4
			c-2.9,3.6-5.2,7.7-6.6,11.9c-22.1-35.6-53.5-54.5-70.4-62.9c9.6-9.6,18-16.4,21.9-19.4c2.9-2.1,4.3-5.5,3.9-9.1
			c-0.4-3.6-2.5-6.8-5.7-8.4c-6.4-3.4-10.5-8.6-12.1-16.2c-3.2-13.9,3.9-28.7,17.3-36.2c77.3-42.6,80.7-123.3,80.9-126.7
			c0.2-4.8-3.6-8.7-8.4-8.9c-4.8-0.2-8.7,3.6-8.9,8.4c-0.2,3-3.4,74.5-71.8,112.1c-20.1,11-30.8,33.7-26,55.1
			c2.1,9.1,6.4,16.6,12.7,22.1c-6.4,5.5-15.5,13.7-24.9,24.1c-0.2,0.2-0.2,0.4-0.4,0.4c-22.5,24.9-46.9,61.6-44.4,102.1
			c1.1,15.9,6.1,31.2,15.1,45.4c0.2,0,0.2,0,0.2,0h0.2c12.3,19.4,31.7,37.2,58.4,53.5l-0.2,53.1c0,4.8,3.7,8.7,8.6,8.7h0.2
			c4.8,0,8.7-3.9,8.7-8.7l0.2-54.5c10.7-10.5,60.9-53.1,152.9-30.5c8.7,54.3-17.5,77-18.9,78.4c-3.7,3-4.3,8.4-1.2,12.1
			c1.8,2.1,4.3,3.4,6.8,3.4c2,0,3.7-0.5,5.3-2c2.5-2,59.7-49.5,0.5-166.1c-5.3-10.5-8-22.3-8-34.2l38.1-60
			C379,221.5,382.8,209.9,382.1,197.6L382.1,197.6z M130.5,360.8c-4.8-9.6-7.7-19.6-8.2-29.8c-2.1-32.6,16.9-63.1,36-85.2
			c13.9,6.1,53.3,26.4,75,70.7C183.8,330.9,146.2,351.4,130.5,360.8L130.5,360.8z M344.8,380.6c-90-19.2-142.7,20-158.8,34.7
			c-20.1-12.5-35.6-25.8-46.3-40.1c15.9-9.3,55.9-31,107.4-44.5c1.6,2.1,3.4,4.1,5.7,5.9c6.9,5.9,15.7,9.1,24.8,9.1
			c11.2,0,21.9-5,29.2-13.5l8-12.7c1.8-0.2,3.6-0.2,5.3-0.4c1.6,4.6,3.4,9.3,5.5,13.7C334.9,350.7,340.9,366.5,344.8,380.6
			L344.8,380.6z"/>
	</g>
	<g>
		
			<linearGradient id="SVGID_1_" gradientUnits="userSpaceOnUse" x1="103.0461" y1="-218" x2="380.3717" y2="-218" gradientTransform="matrix(1 0 0 1 0 468)">
			<stop  offset="0" style="stop-color:#1ED6FF"/>
			<stop  offset="1" style="stop-color:#5D4AFF"/>
		</linearGradient>
		<path class="st2" d="M380.3,197.6L366,15.7c-0.4-4.8-4.6-8.4-9.3-8s-7.8,4.1-7.8,8.7c0,0.2,0,0.4,0,0.5L363,198.9
			c0.5,7.7-2,15.1-6.9,21l-64.5,101.6c-7.3,8.2-20.8,9.1-29.2,2c-4.3-3.6-6.9-8.7-7.3-14.3c-0.4-5.7,1.2-11,5-15.3l57.7-93.2
			c2-3.2,2.9-6.8,2.5-10l-7.8-174.4v-0.2c-0.2-4.8-4.5-8.6-9.1-8.2c-4.8,0.2-8.4,4.3-8.2,9.1l8,175l-57,91.4
			c-2.9,3.6-5.2,7.7-6.6,11.9c-22.1-35.6-53.5-54.5-70.4-62.9c9.6-9.6,18-16.4,21.9-19.4c2.9-2.1,4.3-5.5,3.9-9.1
			c-0.4-3.6-2.5-6.8-5.7-8.4c-6.4-3.4-10.5-8.6-12.1-16.2c-3.2-13.9,3.9-28.7,17.3-36.2c77.3-42.6,80.7-123.3,80.9-126.7
			c0.2-4.8-3.6-8.7-8.4-8.9c-4.8-0.2-8.7,3.6-8.9,8.4c-0.2,3-3.4,74.5-71.8,112.1c-20.1,11-30.8,33.7-26,55.1
			c2.1,9.1,6.4,16.6,12.7,22.1c-6.4,5.5-15.5,13.7-24.9,24.1c-0.2,0.2-0.2,0.4-0.4,0.4c-22.5,24.9-46.9,61.6-44.4,102.1
			c1.1,15.9,6.1,31.2,15.1,45.4c0.2,0,0.2,0,0.2,0h0.2c12.3,19.4,31.7,37.2,58.4,53.5l-0.2,53.1c0,4.8,3.7,8.7,8.6,8.7h0.2
			c4.8,0,8.7-3.9,8.7-8.7l0.2-54.5c10.7-10.5,60.9-53.1,152.9-30.5c8.7,54.3-17.5,77-18.9,78.4c-3.7,3-4.3,8.4-1.2,12.1
			c1.8,2.1,4.3,3.4,6.8,3.4c2,0,3.7-0.5,5.3-2c2.5-2,59.7-49.5,0.5-166.1c-5.3-10.5-8-22.3-8-34.2l38.1-60
			C377.3,221.5,381,209.9,380.3,197.6L380.3,197.6z M128.7,360.8c-4.8-9.6-7.7-19.6-8.2-29.8c-2.1-32.6,16.9-63.1,36-85.2
			c13.9,6.1,53.3,26.4,75,70.7C182,330.9,144.4,351.4,128.7,360.8L128.7,360.8z M343,380.6c-90-19.2-142.7,20-158.8,34.7
			c-20.1-12.5-35.6-25.8-46.3-40.1c15.9-9.3,55.9-31,107.4-44.5c1.6,2.1,3.4,4.1,5.7,5.9c6.9,5.9,15.7,9.1,24.8,9.1
			c11.2,0,21.9-5,29.2-13.5l8-12.7c1.8-0.2,3.6-0.2,5.3-0.4c1.6,4.6,3.4,9.3,5.5,13.7C333.1,350.7,339.1,366.5,343,380.6L343,380.6z
			"/>
	</g>
</g>
</svg>
