<?xml version="1.0" encoding="utf-8"?>
<!-- Generator: Adobe Illustrator 26.5.0, SVG Export Plug-In . SVG Version: 6.00 Build 0)  -->
<svg version="1.1" id="Layer_2_00000124872225058916883100000011680312139581743508_"
	 xmlns="http://www.w3.org/2000/svg" xmlns:xlink="http://www.w3.org/1999/xlink" x="0px" y="0px" viewBox="0 0 500 500"
	 style="enable-background:new 0 0 500 500;" xml:space="preserve">
<style type="text/css">
	.st0{opacity:0.5;}
	.st1{fill:#6D6D6C;}
	.st2{fill:url(#SVGID_1_);}
	.st3{fill:url(#SVGID_00000090994870499325871830000009911763527193138853_);}
	.st4{fill:url(#SVGID_00000005978789630937609930000016744240844408000647_);}
	.st5{fill:url(#SVGID_00000093138802985744116090000006422831309576441477_);}
</style>
<g>
	<g class="st0">
		<path class="st1" d="M442.7,485.4l-13-127.4c-0.2-25.3-15.4-47.5-37.9-55.2l-102.1-37l-2-38.1l4-2.2c10.1-5.3,16.9-15.2,18.3-26.4
			l5.5-42.7c0.5-4.2-2.4-8.1-6.6-8.4c-4.2-0.4-8.1,2.4-8.4,6.6l-5.5,42.7c-0.7,6.4-4.6,11.9-10.3,14.8l-26.8,14.1
			c-3.7,2-5.1,6.6-3.1,10.3c1.5,2.6,4,4,6.8,4c1.3,0,2.4-0.4,3.7-0.9l7.9-4.2l1.8,35.9c0.2,3.1,2.2,5.7,4.9,6.8l11.7,4.2l-38.1,123
			l-40.1-123.2l11.4-4c2.9-1.1,4.8-3.7,4.9-6.8l2-35l5.7,2.9c1.1,0.5,2.4,0.9,3.5,0.9c2.7,0,5.3-1.5,6.8-4c2-3.7,0.5-8.2-3.1-10.3
			l-26.8-14.1c-5.7-2.9-9.5-8.6-10.3-14.8l-5.5-42.7c-0.5-4.2-4.4-7.1-8.4-6.6c-4.2,0.5-7.1,4.4-6.6,8.4l5.5,42.7
			c1.5,11.2,8.2,21.1,18.3,26.4l6.2,3.3l-2,36.8l-102.5,37.2c-22.5,7.7-37.8,29.9-37.9,55.2L61.6,485c-0.4,4.2,2.6,7.9,6.8,8.2
			c0.2,0,0.5,0,0.7,0c3.8,0,7.1-2.9,7.5-6.8l13-127.8c0-0.2,0-0.5,0-0.7c0-19.1,11.2-35.6,27.7-41.2h0.2l41.4-15l-14.5,21.4
			c-1.6,2.4-1.6,5.3-0.4,7.7s3.8,4,6.6,4l24.7,0.4l-11.2,14.1c-2.2,2.7-2.2,6.6,0,9.3l50,63.8c1.5,1.8,3.7,2.9,6,2.9
			c1.6,0,3.3-0.5,4.8-1.6c3.3-2.6,3.8-7.3,1.3-10.6l-46.7-58.7l17-21.4c1.8-2.2,2.2-5.3,0.9-8.1c-1.3-2.6-3.8-4.4-6.8-4.4l-26-0.4
			l18.5-27.1l15.8-5.7L245.7,430c0,0.2,0,0.4,0,0.5v55.9c0,4.2,3.5,7.5,7.5,7.5s7.5-3.5,7.5-7.5v-53c0-0.2,0.2-0.4,0.4-0.5
			L306,287.8l12.8,4.6l19.1,28l-26,0.4c-2.9,0-5.5,1.6-6.8,4.4c-1.3,2.7-0.9,5.7,0.9,8.1l17,21.4l-46.6,59c-2.6,3.3-2,8.1,1.3,10.6
			c1.5,1.1,3.1,1.6,4.8,1.6c2.2,0,4.6-0.9,6-2.9l50-63.8c2.2-2.7,2.2-6.6,0-9.3l-11.2-14.1l24.7-0.4c2.7,0,5.3-1.6,6.6-4
			c1.3-2.6,1.1-5.5-0.4-7.7l-15.2-22.4l43.8,15.9c0,0,0,0,0.2,0c16.5,5.7,27.7,22.2,27.7,41.2c0,0.2,0,0.5,0,0.7l13,127.8
			c0.4,3.8,3.7,6.8,7.5,6.8c0.2,0,0.5,0,0.7,0C440.1,493.3,443.1,489.4,442.7,485.4L442.7,485.4z"/>
		<path class="st1" d="M135.1,283c0.4,0,0.7,0,0.9,0c3.8,0,7.1-2.7,7.5-6.6l17-135.3l6.8-50.6c5.7-43.1,42.3-75.5,85.4-75.5
			s79.6,32.3,85.2,75.2l6.8,51.1l15,134.9c0.4,4.2,4.2,7.1,8.4,6.8c4.2-0.4,7.1-4.2,6.8-8.4l-15-134.9v-0.2l-6.8-51.1
			C346.5,37.9,303.4,0,252.8,0S159,38.1,152.4,88.7l-6.8,50.6l-17,135.3C128,278.6,130.9,282.5,135.1,283L135.1,283z"/>
		<path class="st1" d="M288.9,59.9c-3.7-2.2-8.2-1.1-10.4,2.6c-12.8,21.1-32.8,44.4-84.1,59c-4,1.1-6.4,5.3-5.3,9.3
			c0.9,3.3,4,5.5,7.3,5.5c0.7,0,1.5-0.2,2-0.4c36.7-10.4,59.2-25.7,74.1-41.1c3.8,7.9,11.2,18.9,23.6,26.6c1.3,0.7,2.6,1.1,4,1.1
			c2.6,0,4.9-1.3,6.4-3.7c2.2-3.5,1.1-8.2-2.4-10.4c-14.3-8.8-19.6-23.5-20.7-26.8c2.9-4,5.5-7.9,7.9-11.7
			C293.7,66.9,292.6,62.1,288.9,59.9L288.9,59.9z"/>
		<path class="st1" d="M389.9,439.4H371v-18.9c0-4.2-3.5-7.5-7.5-7.5s-7.5,3.5-7.5,7.5v18.9h-18.9c-4.2,0-7.5,3.5-7.5,7.5
			s3.5,7.5,7.5,7.5H356v18.9c0,4.2,3.5,7.5,7.5,7.5s7.5-3.5,7.5-7.5v-18.9h18.9c4.2,0,7.5-3.5,7.5-7.5S394.1,439.4,389.9,439.4z"/>
	</g>
	<g>
		<g>
			
				<linearGradient id="SVGID_1_" gradientUnits="userSpaceOnUse" x1="59.7596" y1="-147.2539" x2="440.9073" y2="-147.2539" gradientTransform="matrix(1 0 0 1 0 468)">
				<stop  offset="0" style="stop-color:#1ED6FF"/>
				<stop  offset="1" style="stop-color:#5D4AFF"/>
			</linearGradient>
			<path class="st2" d="M440.9,485.4l-13-127.4c-0.2-25.3-15.4-47.5-37.9-55.2l-102.1-37l-2-38.1l4-2.2
				c10.1-5.3,16.9-15.2,18.3-26.4l5.5-42.7c0.5-4.2-2.4-8.1-6.6-8.4c-4.2-0.4-8.1,2.4-8.4,6.6l-5.5,42.7
				c-0.7,6.4-4.6,11.9-10.3,14.8l-26.8,14.1c-3.7,2-5.1,6.6-3.1,10.3c1.5,2.6,4,4,6.8,4c1.3,0,2.4-0.4,3.7-0.9l7.9-4.2l1.8,35.9
				c0.2,3.1,2.2,5.7,4.9,6.8l11.7,4.2l-38.1,123l-40.1-123.2l11.4-4c2.9-1.1,4.8-3.7,4.9-6.8l2-35l5.7,2.9c1.1,0.5,2.4,0.9,3.5,0.9
				c2.7,0,5.3-1.5,6.8-4c2-3.7,0.5-8.2-3.1-10.3L216,211.7c-5.7-2.9-9.5-8.6-10.3-14.8l-5.5-42.7c-0.5-4.2-4.4-7.1-8.4-6.6
				c-4.2,0.5-7.1,4.4-6.6,8.4l5.5,42.7c1.5,11.2,8.2,21.1,18.3,26.4l6.2,3.3l-2,36.8l-102.5,37.2c-22.5,7.7-37.8,29.9-37.9,55.2
				L59.8,485c-0.4,4.2,2.6,7.9,6.8,8.2c0.2,0,0.5,0,0.7,0c3.8,0,7.1-2.9,7.5-6.8l13-127.8c0-0.2,0-0.5,0-0.7
				c0-19.1,11.2-35.6,27.7-41.2h0.2l41.4-15l-14.5,21.4c-1.6,2.4-1.6,5.3-0.4,7.7s3.8,4,6.6,4l24.7,0.4l-11.2,14.1
				c-2.2,2.7-2.2,6.6,0,9.3l50,63.8c1.5,1.8,3.7,2.9,6,2.9c1.6,0,3.3-0.5,4.8-1.6c3.3-2.6,3.8-7.3,1.3-10.6l-46.7-58.7l17-21.4
				c1.8-2.2,2.2-5.3,0.9-8.1c-1.3-2.6-3.8-4.4-6.8-4.4l-26-0.4l18.5-27.1l15.8-5.7L243.8,430c0,0.2,0,0.4,0,0.5v55.9
				c0,4.2,3.5,7.5,7.5,7.5c4,0,7.5-3.5,7.5-7.5v-53c0.2-0.2,0.2-0.4,0.4-0.5l44.9-145.2l12.8,4.6l19.1,28l-26,0.4
				c-2.9,0-5.5,1.6-6.8,4.4c-1.3,2.7-0.9,5.7,0.9,8.1l17,21.4l-46.6,59c-2.6,3.3-2,8.1,1.3,10.6c1.5,1.1,3.1,1.6,4.8,1.6
				c2.2,0,4.6-0.9,6-2.9l50-63.8c2.2-2.7,2.2-6.6,0-9.3l-11.2-14.1l24.7-0.4c2.7,0,5.3-1.6,6.6-4c1.3-2.6,1.1-5.5-0.4-7.7
				l-15.2-22.4l43.8,15.9c0,0,0,0,0.2,0c16.5,5.7,27.7,22.2,27.7,41.2c0,0.2,0,0.5,0,0.7L426,487c0.4,3.8,3.7,6.8,7.5,6.8
				c0.2,0,0.5,0,0.7,0C438.3,493.3,441.2,489.4,440.9,485.4L440.9,485.4z"/>
			
				<linearGradient id="SVGID_00000020370857445392689140000001218257479117568191_" gradientUnits="userSpaceOnUse" x1="126.6298" y1="-326.4751" x2="373.2688" y2="-326.4751" gradientTransform="matrix(1 0 0 1 0 468)">
				<stop  offset="0" style="stop-color:#1ED6FF"/>
				<stop  offset="1" style="stop-color:#5D4AFF"/>
			</linearGradient>
			<path style="fill:url(#SVGID_00000020370857445392689140000001218257479117568191_);" d="M133.3,283c0.4,0,0.7,0,0.9,0
				c3.8,0,7.1-2.7,7.5-6.6l17-135.3l6.8-50.6C171.2,47.5,207.9,15,251,15s79.6,32.3,85.2,75.2l6.8,51.1l15,134.9
				c0.4,4.2,4.2,7.1,8.4,6.8c4.2-0.4,7.1-4.2,6.8-8.4l-15-134.9v-0.2l-6.8-51.1C344.6,37.9,301.6,0,251,0s-93.9,38.1-100.4,88.7
				l-6.8,50.6l-17,135.3C126.1,278.6,129.1,282.5,133.3,283L133.3,283z"/>
			
				<linearGradient id="SVGID_00000069360554514510714320000015254720387335349181_" gradientUnits="userSpaceOnUse" x1="186.9176" y1="-370.4058" x2="306.0614" y2="-370.4058" gradientTransform="matrix(1 0 0 1 0 468)">
				<stop  offset="0" style="stop-color:#1ED6FF"/>
				<stop  offset="1" style="stop-color:#5D4AFF"/>
			</linearGradient>
			<path style="fill:url(#SVGID_00000069360554514510714320000015254720387335349181_);" d="M287.1,59.9c-3.7-2.2-8.2-1.1-10.4,2.6
				c-12.8,21.1-32.8,44.4-84.1,59c-4,1.1-6.4,5.3-5.3,9.3c0.9,3.3,4,5.5,7.3,5.5c0.7,0,1.5-0.2,2-0.4c36.7-10.4,59.2-25.7,74.1-41.1
				c3.8,7.9,11.2,18.9,23.6,26.6c1.3,0.7,2.6,1.1,4,1.1c2.6,0,4.9-1.3,6.4-3.7c2.2-3.5,1.1-8.2-2.4-10.4
				c-14.3-8.8-19.6-23.5-20.7-26.8c2.9-4,5.5-7.9,7.9-11.7C291.9,66.9,290.8,62.1,287.1,59.9L287.1,59.9z"/>
			
				<linearGradient id="SVGID_00000139999358276244948060000000392022960955478958_" gradientUnits="userSpaceOnUse" x1="327.6321" y1="-21.1087" x2="395.7473" y2="-21.1087" gradientTransform="matrix(1 0 0 1 0 468)">
				<stop  offset="0" style="stop-color:#1ED6FF"/>
				<stop  offset="1" style="stop-color:#5D4AFF"/>
			</linearGradient>
			<path style="fill:url(#SVGID_00000139999358276244948060000000392022960955478958_);" d="M388.1,439.4h-18.9v-18.9
				c0-4.2-3.5-7.5-7.5-7.5c-4,0-7.5,3.5-7.5,7.5v18.9h-18.9c-4.2,0-7.5,3.5-7.5,7.5s3.5,7.5,7.5,7.5h18.9v18.9
				c0,4.2,3.5,7.5,7.5,7.5c4,0,7.5-3.5,7.5-7.5v-18.9h18.9c4.2,0,7.5-3.5,7.5-7.5S392.3,439.4,388.1,439.4z"/>
		</g>
	</g>
</g>
</svg>
