<?xml version="1.0" encoding="utf-8"?>
<!-- Generator: Adobe Illustrator 26.5.0, SVG Export Plug-In . SVG Version: 6.00 Build 0)  -->
<svg version="1.1" id="Layer_2_00000120532809541415319580000003630186973701464745_"
	 xmlns="http://www.w3.org/2000/svg" xmlns:xlink="http://www.w3.org/1999/xlink" x="0px" y="0px" viewBox="0 0 500 500"
	 style="enable-background:new 0 0 500 500;" xml:space="preserve">
<style type="text/css">
	.st0{opacity:0.5;}
	.st1{fill:#6D6D6C;}
	.st2{fill:url(#SVGID_1_);}
	.st3{fill:url(#SVGID_00000009573235767065663480000001724191001230913203_);}
	.st4{fill:url(#SVGID_00000033337382562127127400000012991966712807137194_);}
	.st5{fill:url(#SVGID_00000128468427922629416670000014461147452804666532_);}
	.st6{fill:url(#SVGID_00000074425412809201268050000016800778224182230973_);}
	.st7{fill:url(#SVGID_00000111886269215772197650000018158108654306345604_);}
	.st8{fill:url(#SVGID_00000101101866086227464450000009009908655909864848_);}
	.st9{fill:url(#SVGID_00000058566840677154124660000017918045501916563862_);}
	.st10{fill:url(#SVGID_00000109729334052974878020000008138669323904032129_);}
	.st11{fill:url(#SVGID_00000139280867032594647860000005953669317338025883_);}
	.st12{fill:url(#SVGID_00000127044890313818464390000016185051065923905711_);}
	.st13{fill:url(#SVGID_00000044870199545981481870000005082265715521200057_);}
</style>
<g>
	<g class="st0">
		<path class="st1" d="M477.3,249.6H25.5c-3.8,0-6.8-3.1-6.8-6.8s3.1-6.8,6.8-6.8h451.8c3.8,0,6.8,3.1,6.8,6.8
			S481.1,249.6,477.3,249.6z"/>
		<path class="st1" d="M477.3,315H25.5c-3.8,0-6.8-3.1-6.8-6.8s3.1-6.8,6.8-6.8h451.8c3.8,0,6.8,3.1,6.8,6.8S481.1,315,477.3,315z"
			/>
		<path class="st1" d="M64.7,420.9c-16.7,0-30.2-13.6-30.2-30.2s13.6-30.2,30.2-30.2s30.2,13.6,30.2,30.2S81.4,420.9,64.7,420.9z
			 M64.7,374c-9.2,0-16.7,7.5-16.7,16.7s7.5,16.7,16.7,16.7s16.7-7.5,16.7-16.7S73.9,374,64.7,374z"/>
		<path class="st1" d="M189.1,420.9c-16.7,0-30.2-13.6-30.2-30.2s13.6-30.2,30.2-30.2s30.2,13.6,30.2,30.2S205.8,420.9,189.1,420.9z
			 M189.1,374c-9.2,0-16.7,7.5-16.7,16.7s7.5,16.7,16.7,16.7s16.7-7.5,16.7-16.7S198.3,374,189.1,374z"/>
		<path class="st1" d="M126.8,497.5c-16.7,0-30.2-13.6-30.2-30.2c0-16.7,13.6-30.2,30.2-30.2s30.2,13.6,30.2,30.2
			C157.1,483.9,143.7,497.5,126.8,497.5z M126.8,450.6c-9.2,0-16.7,7.5-16.7,16.7s7.5,16.7,16.7,16.7s16.7-7.5,16.7-16.7
			S136,450.6,126.8,450.6z"/>
		<path class="st1" d="M251.4,497.5c-16.7,0-30.2-13.6-30.2-30.2c0-16.7,13.6-30.2,30.2-30.2s30.2,13.6,30.2,30.2
			C281.6,483.9,268.1,497.5,251.4,497.5z M251.4,450.6c-9.2,0-16.7,7.5-16.7,16.7s7.5,16.7,16.7,16.7c9.2,0,16.7-7.5,16.7-16.7
			S260.6,450.6,251.4,450.6L251.4,450.6z"/>
		<path class="st1" d="M376,497.5c-16.7,0-30.2-13.6-30.2-30.2c0-16.7,13.6-30.2,30.2-30.2s30.2,13.6,30.2,30.2
			C406.2,483.9,392.6,497.5,376,497.5z M376,450.6c-9.2,0-16.7,7.5-16.7,16.7s7.5,16.7,16.7,16.7s16.7-7.5,16.7-16.7
			S385.1,450.6,376,450.6z"/>
		<path class="st1" d="M313.7,420.9c-16.7,0-30.2-13.6-30.2-30.2s13.6-30.2,30.2-30.2s30.2,13.6,30.2,30.2S330.4,420.9,313.7,420.9z
			 M313.7,374c-9.2,0-16.7,7.5-16.7,16.7s7.5,16.7,16.7,16.7s16.7-7.5,16.7-16.7S322.8,374,313.7,374z"/>
		<path class="st1" d="M438.3,420.9c-16.7,0-30.2-13.6-30.2-30.2s13.6-30.2,30.2-30.2s30.2,13.6,30.2,30.2S454.9,420.9,438.3,420.9z
			 M438.3,374c-9.2,0-16.7,7.5-16.7,16.7s7.5,16.7,16.7,16.7s16.7-7.5,16.7-16.7S447.4,374,438.3,374z"/>
		<path class="st1" d="M135.4,175.1h-31.9c-9.3,0-16.9-7.5-16.9-16.9v-36.6H50.1c-9.3,0-16.9-7.5-16.9-16.9V72.8
			c0-9.3,7.5-16.9,16.9-16.9h36.6V19.4c0-9.3,7.5-16.9,16.9-16.9h31.9c9.3,0,16.9,7.7,16.9,16.9V56h36.6c9.3,0,16.9,7.7,16.9,16.9
			v31.7c0,9.3-7.5,16.9-16.9,16.9h-36.6V158C152.5,167.6,144.8,175.1,135.4,175.1z M50.1,69.4c-1.8,0-3.3,1.5-3.3,3.3v31.9
			c0,1.8,1.5,3.3,3.3,3.3h43.6c3.8,0,6.8,3.1,6.8,6.8v43.6c0,1.8,1.5,3.3,3.3,3.3h31.9c1.8,0,3.3-1.5,3.3-3.3v-43.6
			c0-3.8,3.1-6.8,6.8-6.8h43.6c1.8,0,3.3-1.5,3.3-3.3V72.7c0-1.8-1.5-3.3-3.3-3.3h-43.6c-3.8,0-6.8-3.1-6.8-6.8V19
			c0-1.8-1.5-3.3-3.3-3.3h-31.9c-1.8,0-3.3,1.5-3.3,3.3v43.6c0,3.8-3.1,6.8-6.8,6.8C93.5,69.4,50.1,69.4,50.1,69.4z"/>
		<path class="st1" d="M280.5,218.3h-19.8c-7.1,0-13.2-5.9-13.2-13.2V185h-20.2c-7.1,0-13.2-5.9-13.2-13.2V152
			c0-7.1,5.9-13.2,13.2-13.2h20.2v-20.2c0-7.1,5.9-13.2,13.2-13.2h19.8c7.3,0,13.2,5.9,13.2,13.2v20.2h20.2
			c7.3,0,13.2,5.9,13.2,13.2v19.8c0,7.1-5.9,13.2-13.2,13.2h-20.2v20.2C293.7,212.3,287.7,218.3,280.5,218.3z M254.5,171.2
			c3.8,0,6.8,3.1,6.8,6.8v27.1l19.2-0.5L280,178c0-3.8,3.1-6.8,6.8-6.8h27.1l-0.5-19.2l-26.6,0.5c-3.8,0-6.8-3.1-6.8-6.8v-27.1
			l-19.2,0.5l0.5,26.6c0,3.8-3.1,6.8-6.8,6.8h-27.1l0.5,19.2L254.5,171.2L254.5,171.2z"/>
		<path class="st1" d="M413.7,145.8H389c-8.1,0-14.7-6.6-14.7-14.7v-26.9h-26.9c-8.1,0-14.7-6.6-14.7-14.7V65
			c0-8.1,6.6-14.7,14.7-14.7h26.9V23.4c0-8.1,6.6-14.7,14.7-14.7h24.5c8.1,0,14.7,6.6,14.7,14.7v26.9h26.7c8.1,0,14.7,6.6,14.7,14.7
			v24.5c0,8.1-6.6,14.7-14.7,14.7h-26.7v26.9C428.4,139.2,421.8,145.8,413.7,145.8z M347.6,63.9c-0.5,0-0.9,0.4-0.9,1.1v24.5
			c0,0.5,0.4,1.1,0.9,1.1h33.7c3.8,0,6.8,3.1,6.8,6.8v33.7c0,0.5,0.4,1.1,0.9,1.1h24.5c0.5,0,0.9-0.4,0.9-1.1V97.4
			c0-3.8,3.1-6.8,6.8-6.8h33.7c0.5,0,0.9-0.4,0.9-1.1V65c0-0.5-0.4-1.1-0.9-1.1h-33.7c-3.8,0-6.8-3.1-6.8-6.8V23.4
			c0-0.5-0.4-1.1-0.9-1.1H389c-0.5,0-0.9,0.4-0.9,1.1v33.7c0,3.8-3.1,6.8-6.8,6.8C381.1,63.9,347.6,63.9,347.6,63.9z"/>
	</g>
	<g>
		<g>
			<g>
				
					<linearGradient id="SVGID_1_" gradientUnits="userSpaceOnUse" x1="16.907" y1="-225.1447" x2="482.229" y2="-225.1447" gradientTransform="matrix(1 0 0 1 0 468)">
					<stop  offset="0" style="stop-color:#1ED6FF"/>
					<stop  offset="1" style="stop-color:#5D4AFF"/>
				</linearGradient>
				<path class="st2" d="M475.5,249.6H23.7c-3.8,0-6.8-3.1-6.8-6.8s3.1-6.8,6.8-6.8h451.8c3.8,0,6.8,3.1,6.8,6.8
					S479.3,249.6,475.5,249.6z"/>
				
					<linearGradient id="SVGID_00000061470326727649690750000017289390377899006611_" gradientUnits="userSpaceOnUse" x1="16.907" y1="-159.7432" x2="482.229" y2="-159.7432" gradientTransform="matrix(1 0 0 1 0 468)">
					<stop  offset="0" style="stop-color:#1ED6FF"/>
					<stop  offset="1" style="stop-color:#5D4AFF"/>
				</linearGradient>
				<path style="fill:url(#SVGID_00000061470326727649690750000017289390377899006611_);" d="M475.5,315H23.7
					c-3.8,0-6.8-3.1-6.8-6.8s3.1-6.8,6.8-6.8h451.8c3.8,0,6.8,3.1,6.8,6.8S479.3,315,475.5,315z"/>
				<g>
					
						<linearGradient id="SVGID_00000080167338812061189520000011774360176872338060_" gradientUnits="userSpaceOnUse" x1="32.5337" y1="-77.3042" x2="93.0989" y2="-77.3042" gradientTransform="matrix(1 0 0 1 0 468)">
						<stop  offset="0" style="stop-color:#1ED6FF"/>
						<stop  offset="1" style="stop-color:#5D4AFF"/>
					</linearGradient>
					<path style="fill:url(#SVGID_00000080167338812061189520000011774360176872338060_);" d="M62.9,420.9
						c-16.7,0-30.2-13.6-30.2-30.2s13.6-30.2,30.2-30.2s30.2,13.6,30.2,30.2S79.6,420.9,62.9,420.9z M62.9,374
						c-9.2,0-16.7,7.5-16.7,16.7s7.5,16.7,16.7,16.7s16.7-7.5,16.7-16.7S72,374,62.9,374z"/>
					
						<linearGradient id="SVGID_00000069379181296069212970000015132265152509646271_" gradientUnits="userSpaceOnUse" x1="157.0532" y1="-77.3042" x2="217.6183" y2="-77.3042" gradientTransform="matrix(1 0 0 1 0 468)">
						<stop  offset="0" style="stop-color:#1ED6FF"/>
						<stop  offset="1" style="stop-color:#5D4AFF"/>
					</linearGradient>
					<path style="fill:url(#SVGID_00000069379181296069212970000015132265152509646271_);" d="M187.3,420.9
						c-16.7,0-30.2-13.6-30.2-30.2s13.6-30.2,30.2-30.2s30.2,13.6,30.2,30.2S204,420.9,187.3,420.9z M187.3,374
						c-9.2,0-16.7,7.5-16.7,16.7s7.5,16.7,16.7,16.7c9.2,0,16.7-7.5,16.7-16.7S196.4,374,187.3,374z"/>
					
						<linearGradient id="SVGID_00000171716172331560843560000001810190525049283751_" gradientUnits="userSpaceOnUse" x1="94.766" y1="-0.7276" x2="155.3311" y2="-0.7276" gradientTransform="matrix(1 0 0 1 0 468)">
						<stop  offset="0" style="stop-color:#1ED6FF"/>
						<stop  offset="1" style="stop-color:#5D4AFF"/>
					</linearGradient>
					<path style="fill:url(#SVGID_00000171716172331560843560000001810190525049283751_);" d="M125,497.5
						c-16.7,0-30.2-13.6-30.2-30.2c0-16.7,13.6-30.2,30.2-30.2s30.2,13.6,30.2,30.2C155.2,483.9,141.8,497.5,125,497.5z M125,450.6
						c-9.2,0-16.7,7.5-16.7,16.7s7.5,16.7,16.7,16.7s16.7-7.5,16.7-16.7S134.2,450.6,125,450.6z"/>
					
						<linearGradient id="SVGID_00000137851157686483065330000008567226514781017744_" gradientUnits="userSpaceOnUse" x1="219.3404" y1="-0.7276" x2="279.9055" y2="-0.7276" gradientTransform="matrix(1 0 0 1 0 468)">
						<stop  offset="0" style="stop-color:#1ED6FF"/>
						<stop  offset="1" style="stop-color:#5D4AFF"/>
					</linearGradient>
					<path style="fill:url(#SVGID_00000137851157686483065330000008567226514781017744_);" d="M249.6,497.5
						c-16.7,0-30.2-13.6-30.2-30.2c0-16.7,13.6-30.2,30.2-30.2s30.2,13.6,30.2,30.2C279.8,483.9,266.2,497.5,249.6,497.5z
						 M249.6,450.6c-9.2,0-16.7,7.5-16.7,16.7s7.5,16.7,16.7,16.7s16.7-7.5,16.7-16.7S258.7,450.6,249.6,450.6L249.6,450.6z"/>
					
						<linearGradient id="SVGID_00000041265338325560392680000001490956328998353083_" gradientUnits="userSpaceOnUse" x1="343.8048" y1="-0.7276" x2="404.37" y2="-0.7276" gradientTransform="matrix(1 0 0 1 0 468)">
						<stop  offset="0" style="stop-color:#1ED6FF"/>
						<stop  offset="1" style="stop-color:#5D4AFF"/>
					</linearGradient>
					<path style="fill:url(#SVGID_00000041265338325560392680000001490956328998353083_);" d="M374.1,497.5
						c-16.7,0-30.2-13.6-30.2-30.2c0-16.7,13.6-30.2,30.2-30.2s30.2,13.6,30.2,30.2C404.4,483.9,390.8,497.5,374.1,497.5z
						 M374.1,450.6c-9.2,0-16.7,7.5-16.7,16.7s7.5,16.7,16.7,16.7s16.7-7.5,16.7-16.7S383.3,450.6,374.1,450.6z"/>
					
						<linearGradient id="SVGID_00000017493136661987235620000006697005286827717814_" gradientUnits="userSpaceOnUse" x1="281.5543" y1="-77.3042" x2="342.1194" y2="-77.3042" gradientTransform="matrix(1 0 0 1 0 468)">
						<stop  offset="0" style="stop-color:#1ED6FF"/>
						<stop  offset="1" style="stop-color:#5D4AFF"/>
					</linearGradient>
					<path style="fill:url(#SVGID_00000017493136661987235620000006697005286827717814_);" d="M311.9,420.9
						c-16.7,0-30.2-13.6-30.2-30.2s13.6-30.2,30.2-30.2s30.2,13.6,30.2,30.2S328.5,420.9,311.9,420.9z M311.9,374
						c-9.2,0-16.7,7.5-16.7,16.7s7.5,16.7,16.7,16.7s16.7-7.5,16.7-16.7S321,374,311.9,374z"/>
					
						<linearGradient id="SVGID_00000128459126371147300600000007902488036123605123_" gradientUnits="userSpaceOnUse" x1="406.0737" y1="-77.3042" x2="466.6389" y2="-77.3042" gradientTransform="matrix(1 0 0 1 0 468)">
						<stop  offset="0" style="stop-color:#1ED6FF"/>
						<stop  offset="1" style="stop-color:#5D4AFF"/>
					</linearGradient>
					<path style="fill:url(#SVGID_00000128459126371147300600000007902488036123605123_);" d="M436.4,420.9
						c-16.7,0-30.2-13.6-30.2-30.2s13.6-30.2,30.2-30.2s30.2,13.6,30.2,30.2S453.1,420.9,436.4,420.9z M436.4,374
						c-9.2,0-16.7,7.5-16.7,16.7s7.5,16.7,16.7,16.7s16.7-7.5,16.7-16.7S445.6,374,436.4,374z"/>
				</g>
			</g>
			<g>
				
					<linearGradient id="SVGID_00000075885449528721508630000005394914011946299784_" gradientUnits="userSpaceOnUse" x1="31.3796" y1="-379.2139" x2="204.3365" y2="-379.2139" gradientTransform="matrix(1 0 0 1 0 468)">
					<stop  offset="0" style="stop-color:#1ED6FF"/>
					<stop  offset="1" style="stop-color:#5D4AFF"/>
				</linearGradient>
				<path style="fill:url(#SVGID_00000075885449528721508630000005394914011946299784_);" d="M133.6,175.1h-31.9
					c-9.3,0-16.9-7.5-16.9-16.9v-36.6H48.2c-9.3,0-16.9-7.5-16.9-16.9V72.8c0-9.3,7.5-16.9,16.9-16.9h36.6V19.4
					c0-9.3,7.5-16.9,16.9-16.9h31.9c9.3,0,16.9,7.7,16.9,16.9V56h36.6c9.3,0,16.9,7.7,16.9,16.9v31.7c0,9.3-7.5,16.9-16.9,16.9
					h-36.6V158C150.6,167.6,142.9,175.1,133.6,175.1z M48.2,69.4c-1.8,0-3.3,1.5-3.3,3.3v31.9c0,1.8,1.5,3.3,3.3,3.3h43.6
					c3.8,0,6.8,3.1,6.8,6.8v43.6c0,1.8,1.5,3.3,3.3,3.3h31.9c1.8,0,3.3-1.5,3.3-3.3v-43.6c0-3.8,3.1-6.8,6.8-6.8h43.6
					c1.8,0,3.3-1.5,3.3-3.3V72.7c0-1.8-1.5-3.3-3.3-3.3h-43.6c-3.8,0-6.8-3.1-6.8-6.8V19c0-1.8-1.5-3.3-3.3-3.3h-31.9
					c-1.8,0-3.3,1.5-3.3,3.3v43.6c0,3.8-3.1,6.8-6.8,6.8C91.7,69.4,48.2,69.4,48.2,69.4z"/>
				
					<linearGradient id="SVGID_00000124133175277586605820000012357444092714654143_" gradientUnits="userSpaceOnUse" x1="212.3789" y1="-306.118" x2="324.9904" y2="-306.118" gradientTransform="matrix(1 0 0 1 0 468)">
					<stop  offset="0" style="stop-color:#1ED6FF"/>
					<stop  offset="1" style="stop-color:#5D4AFF"/>
				</linearGradient>
				<path style="fill:url(#SVGID_00000124133175277586605820000012357444092714654143_);" d="M278.7,218.3h-19.8
					c-7.1,0-13.2-5.9-13.2-13.2V185h-20.2c-7.1,0-13.2-5.9-13.2-13.2V152c0-7.1,5.9-13.2,13.2-13.2h20.2v-20.2
					c0-7.1,5.9-13.2,13.2-13.2h19.8c7.3,0,13.2,5.9,13.2,13.2v20.2H312c7.3,0,13.2,5.9,13.2,13.2v19.8c0,7.1-5.9,13.2-13.2,13.2
					h-20.2v20.2C291.9,212.3,285.8,218.3,278.7,218.3z M252.7,171.2c3.8,0,6.8,3.1,6.8,6.8v27.1l19.2-0.5l-0.5-26.6
					c0-3.8,3.1-6.8,6.8-6.8H312l-0.5-19.2l-26.6,0.5c-3.8,0-6.8-3.1-6.8-6.8v-27.1l-19.2,0.5l0.5,26.6c0,3.8-3.1,6.8-6.8,6.8h-27.1
					l0.5,19.2L252.7,171.2L252.7,171.2z"/>
				
					<linearGradient id="SVGID_00000183244160482364392920000000955670713114387616_" gradientUnits="userSpaceOnUse" x1="330.9077" y1="-390.7554" x2="467.7564" y2="-390.7554" gradientTransform="matrix(1 0 0 1 0 468)">
					<stop  offset="0" style="stop-color:#1ED6FF"/>
					<stop  offset="1" style="stop-color:#5D4AFF"/>
				</linearGradient>
				<path style="fill:url(#SVGID_00000183244160482364392920000000955670713114387616_);" d="M411.9,145.8h-24.7
					c-8.1,0-14.7-6.6-14.7-14.7v-26.9h-26.9c-8.1,0-14.7-6.6-14.7-14.7V65c0-8.1,6.6-14.7,14.7-14.7h26.9V23.4
					c0-8.1,6.6-14.7,14.7-14.7h24.5c8.1,0,14.7,6.6,14.7,14.7v26.9h26.7c8.1,0,14.7,6.6,14.7,14.7v24.5c0,8.1-6.6,14.7-14.7,14.7
					h-26.7v26.9C426.5,139.2,419.9,145.8,411.9,145.8z M345.7,63.9c-0.5,0-0.9,0.4-0.9,1.1v24.5c0,0.5,0.4,1.1,0.9,1.1h33.7
					c3.8,0,6.8,3.1,6.8,6.8v33.7c0,0.5,0.4,1.1,0.9,1.1h24.5c0.5,0,0.9-0.4,0.9-1.1V97.4c0-3.8,3.1-6.8,6.8-6.8h33.7
					c0.5,0,0.9-0.4,0.9-1.1V65c0-0.5-0.4-1.1-0.9-1.1h-33.7c-3.8,0-6.8-3.1-6.8-6.8V23.4c0-0.5-0.4-1.1-0.9-1.1h-24.5
					c-0.5,0-0.9,0.4-0.9,1.1v33.7c0,3.8-3.1,6.8-6.8,6.8C379.3,63.9,345.7,63.9,345.7,63.9z"/>
			</g>
		</g>
	</g>
</g>
</svg>
