<?xml version="1.0" encoding="utf-8"?>
<!-- Generator: Adobe Illustrator 26.5.0, SVG Export Plug-In . SVG Version: 6.00 Build 0)  -->
<svg version="1.1" id="Layer_2_00000073720535478652849780000002281343916287896254_"
	 xmlns="http://www.w3.org/2000/svg" xmlns:xlink="http://www.w3.org/1999/xlink" x="0px" y="0px" viewBox="0 0 500 500"
	 style="enable-background:new 0 0 500 500;" xml:space="preserve">
<style type="text/css">
	.st0{opacity:0.5;}
	.st1{fill:#6D6D6C;}
	.st2{fill:url(#SVGID_1_);}
	.st3{fill:url(#SVGID_00000158718349521552756870000014131424213270707876_);}
	.st4{fill:url(#SVGID_00000027602273266680713220000012368035068270845586_);}
	.st5{fill:url(#SVGID_00000166674199568048897640000003348172764905299086_);}
	.st6{fill:url(#SVGID_00000111157590289748128140000014242187390951450762_);}
	.st7{fill:url(#SVGID_00000065074126334920661140000009912564324445481885_);}
	.st8{fill:url(#SVGID_00000080928219191959952340000000903486593711234709_);}
	.st9{fill:url(#SVGID_00000017476263699205926370000009409199636995543431_);}
	.st10{fill:url(#SVGID_00000137847456124202750440000015180721351379425434_);}
	.st11{fill:url(#SVGID_00000049196912232780163570000016136143486052150173_);}
	.st12{fill:url(#SVGID_00000039829951501547092930000001682565738521787066_);}
</style>
<g>
	<g class="st0">
		<path class="st1" d="M148.6,214.7c0.2-4.9-3.6-9-8.3-9.3c-5.1-0.3-9,3.4-9.3,8.3c0,0.5-0.5,10.3,1.8,28.9
			C129.2,256,101.6,355.1,52,406.3c-3.4,3.4-3.3,9.1,0.2,12.4c3.4,3.4,9.1,3.3,12.4-0.2c38.2-39.3,63.5-102.7,76.1-141.1
			c8,40,18.3,112.2,6.7,183.2c-0.8,4.9,2.4,9.3,7.3,10.1c0.5,0,1,0.2,1.5,0.2c4.2,0,8-3.1,8.7-7.3c17.1-106.3-11.6-211.6-14.5-222.2
			C148.3,224,148.6,214.7,148.6,214.7L148.6,214.7z"/>
		<path class="st1" d="M215.2,29.2c-4.7-0.3-9,3.4-9.3,8.3c-0.5,8.8-5.9,53.9-69.1,73.8c-11.6,3.6-22.2,9.3-31.3,16.5
			c-15.7,12.4-27.1,29.2-33,48.7l-41.8,137L5.3,385.8c-1.6,4.6,0.8,9.6,5.4,11.3c1,0.3,2,0.5,2.9,0.5c3.6,0,7-2.3,8.3-5.9L47.5,319
			l42-137.5c4.9-15.8,14.2-29.7,27.1-39.8c7.5-5.9,16.2-10.4,25.8-13.6c74.3-23.3,80.8-78.9,81.3-89.8
			C223.9,33.6,220.1,29.3,215.2,29.2z"/>
		<path class="st1" d="M499.2,385.8l-25.3-72l-42-137.5c-5.9-19.3-17.3-36.1-33-48.7c-9.1-7.3-19.8-12.9-31.3-16.5
			c-63-19.9-68.6-65-69.1-73.8c-0.3-4.9-4.6-8.7-9.3-8.3c-4.9,0.3-8.7,4.4-8.3,9.3c0.5,10.9,7.2,66.3,81.3,89.8
			c9.6,3.1,18.3,7.5,25.8,13.6c12.9,10.3,22.2,24,27.1,39.8l42,137.8l25.5,72.3c1.3,3.6,4.7,5.9,8.3,5.9c1,0,2-0.2,2.9-0.5
			C498.3,395.6,500.8,390.5,499.2,385.8L499.2,385.8z"/>
		<path class="st1" d="M371.5,242.6c2.3-18.6,1.8-28.4,1.8-28.9c-0.2-4.9-4.4-8.8-9.3-8.3c-4.9,0.2-8.7,4.4-8.3,9.1
			c0,0.2,0.3,9.3-1.8,26.8c-2.9,10.6-31.7,115.8-14.5,222.2c0.7,4.4,4.4,7.3,8.7,7.3c0.5,0,1,0,1.5-0.2c4.9-0.8,8.2-5.2,7.3-10.1
			c-11.4-71-1.3-143.2,6.7-183.2c12.7,38.2,37.9,101.6,76.1,141.1c3.4,3.4,9,3.6,12.4,0.2c3.4-3.4,3.6-9,0.2-12.4
			C402.7,355.1,374.9,256,371.5,242.6L371.5,242.6z"/>
		<path class="st1" d="M246.9,108.4c1.6,2.8,4.6,4.4,7.7,4.4c1.5,0,3.1-0.3,4.4-1.3c4.2-2.4,5.6-7.8,3.1-12.1
			c-5.9-10-10.6-15.7-10.8-15.8c-3.1-3.8-8.7-4.2-12.4-1c-3.8,3.3-4.2,8.7-1,12.4C237.9,95,241.8,99.9,246.9,108.4L246.9,108.4z"/>
		<path class="st1" d="M277.4,177.9c-4.9,0-8.8,4.2-8.8,9c0,8.8-0.8,18-2.4,26.8c-0.8,4.7,2.4,9.5,7.2,10.3c0.5,0.2,1,0.2,1.6,0.2
			c4.2,0,8-3.1,8.7-7.3c1.8-10,2.6-19.9,2.6-29.9v-0.5C286.2,181.5,282.3,177.9,277.4,177.9L277.4,177.9z"/>
		<path class="st1" d="M258.7,133c3.3,8.7,5.7,17.5,7.3,26.3c0.8,4.2,4.6,7.2,8.7,7.2c0.5,0,1.1,0,1.6-0.2c4.7-0.8,8-5.6,7-10.3
			c-1.8-10-4.6-19.8-8.2-29.2c-1.6-4.6-6.9-6.9-11.4-5.2C259.3,123.4,257,128.5,258.7,133L258.7,133z"/>
		<path class="st1" d="M270.2,234.9c-4.6-1.6-9.6,0.7-11.4,5.2c-1,2.6-2,5.2-2.9,7.7c-2,4.9-4.6,11.4-7.3,19.4
			c-1.6,4.6,0.7,9.6,5.4,11.3c1,0.3,2,0.5,2.9,0.5c3.6,0,7-2.3,8.3-5.9c2.8-7.7,5.2-14,7.2-18.8c1.1-2.8,2.1-5.4,3.3-8.2
			C277.3,241.6,274.8,236.5,270.2,234.9L270.2,234.9z"/>
		<path class="st1" d="M250.3,289.1c-4.7-1.5-9.6,1.3-10.9,5.9c-2.9,9.8-5.4,19.4-7.5,28.6c-1.1,4.7,2,9.5,6.7,10.6
			c0.7,0.2,1.3,0.2,2,0.2c4.1,0,7.7-2.8,8.7-6.9c2-8.8,4.4-18,7.2-27.4C257.7,295.5,255.1,290.6,250.3,289.1L250.3,289.1z"/>
		<path class="st1" d="M233.7,391.6c4.9-0.2,8.8-4.1,8.7-9v-2.6c0-7.7,0.7-16,1.8-24.8c0.7-4.9-2.8-9.3-7.7-10
			c-4.9-0.7-9.3,2.8-10,7.7c-1.3,9.6-2,18.8-2,27.1v2.9c0.2,4.9,4.1,8.7,8.8,8.7L233.7,391.6L233.7,391.6z"/>
		<path class="st1" d="M245.9,409c-1.5-4.7-6.4-7.3-10.9-6c-4.7,1.3-7.3,6.4-6,10.9c2,6.9,4.7,13.1,8.2,18.3
			c1.6,2.6,4.6,4.1,7.5,4.1c1.6,0,3.3-0.5,4.7-1.5c4.1-2.6,5.4-8.2,2.8-12.2C249.5,418.8,247.6,414.2,245.9,409L245.9,409z"/>
	</g>
	<g>
		<g>
			
				<linearGradient id="SVGID_1_" gradientUnits="userSpaceOnUse" x1="47.8281" y1="-129.8325" x2="168.7799" y2="-129.8325" gradientTransform="matrix(1 0 0 1 0 468)">
				<stop  offset="0" style="stop-color:#1ED6FF"/>
				<stop  offset="1" style="stop-color:#5D4AFF"/>
			</linearGradient>
			<path class="st2" d="M147,214.7c0.2-4.9-3.6-9-8.3-9.3c-5.1-0.3-9,3.4-9.3,8.3c0,0.5-0.5,10.3,1.8,28.9
				C127.5,256,100,355.1,50.3,406.3c-3.4,3.4-3.3,9.1,0.2,12.4c3.4,3.4,9.1,3.3,12.4-0.2c38.2-39.3,63.5-102.7,76.1-141.1
				c8,40,18.3,112.2,6.7,183.2c-0.8,4.9,2.4,9.3,7.3,10.1c0.5,0,1,0.2,1.5,0.2c4.2,0,8-3.1,8.7-7.3
				c17.1-106.3-11.6-211.6-14.5-222.2C146.7,224,147,214.7,147,214.7L147,214.7z"/>
			
				<linearGradient id="SVGID_00000080917277143285521890000000831007771025824646_" gradientUnits="userSpaceOnUse" x1="3.1166" y1="-254.6548" x2="222.0879" y2="-254.6548" gradientTransform="matrix(1 0 0 1 0 468)">
				<stop  offset="0" style="stop-color:#1ED6FF"/>
				<stop  offset="1" style="stop-color:#5D4AFF"/>
			</linearGradient>
			<path style="fill:url(#SVGID_00000080917277143285521890000000831007771025824646_);" d="M213.6,29.2c-4.7-0.3-9,3.4-9.3,8.3
				c-0.5,8.8-5.9,53.9-69.1,73.8c-11.6,3.6-22.2,9.3-31.3,16.5c-15.7,12.4-27.1,29.2-33,48.7l-41.8,137L3.6,385.8
				C2,390.3,4.4,395.4,9,397c1,0.3,2,0.5,2.9,0.5c3.6,0,7-2.3,8.3-5.9L45.9,319l42-137.5c4.9-15.8,14.2-29.7,27.1-39.8
				c7.5-5.9,16.2-10.4,25.8-13.6c74.3-23.3,80.8-78.9,81.3-89.8C222.2,33.6,218.5,29.3,213.6,29.2z"/>
			
				<linearGradient id="SVGID_00000023997073288407455420000001954029561354225024_" gradientUnits="userSpaceOnUse" x1="279.2084" y1="-254.7365" x2="498.0311" y2="-254.7365" gradientTransform="matrix(1 0 0 1 0 468)">
				<stop  offset="0" style="stop-color:#1ED6FF"/>
				<stop  offset="1" style="stop-color:#5D4AFF"/>
			</linearGradient>
			<path style="fill:url(#SVGID_00000023997073288407455420000001954029561354225024_);" d="M497.5,385.8l-25.3-72l-42-137.5
				c-5.9-19.3-17.3-36.1-33-48.7c-9.1-7.3-19.8-12.9-31.3-16.5c-63-19.9-68.6-65-69.1-73.8c-0.3-4.9-4.6-8.7-9.3-8.3
				c-4.9,0.3-8.7,4.4-8.3,9.3c0.5,10.9,7.2,66.3,81.3,89.8c9.6,3.1,18.3,7.5,25.8,13.6c12.9,10.3,22.2,24,27.1,39.8l42,137.8
				l25.5,72.3c1.3,3.6,4.7,5.9,8.3,5.9c1,0,2-0.2,2.9-0.5C496.7,395.6,499.2,390.5,497.5,385.8L497.5,385.8z"/>
			
				<linearGradient id="SVGID_00000102519033517929998980000017101769194236024215_" gradientUnits="userSpaceOnUse" x1="332.2591" y1="-129.925" x2="453.217" y2="-129.925" gradientTransform="matrix(1 0 0 1 0 468)">
				<stop  offset="0" style="stop-color:#1ED6FF"/>
				<stop  offset="1" style="stop-color:#5D4AFF"/>
			</linearGradient>
			<path style="fill:url(#SVGID_00000102519033517929998980000017101769194236024215_);" d="M369.8,242.6
				c2.3-18.6,1.8-28.4,1.8-28.9c-0.2-4.9-4.4-8.8-9.3-8.3c-4.9,0.2-8.7,4.4-8.3,9.1c0,0.2,0.3,9.3-1.8,26.8
				c-2.9,10.6-31.7,115.8-14.5,222.2c0.7,4.4,4.4,7.3,8.7,7.3c0.5,0,1,0,1.5-0.2c4.9-0.8,8.2-5.2,7.3-10.1
				c-11.4-71-1.3-143.2,6.7-183.2c12.7,38.2,37.9,101.6,76.1,141.1c3.4,3.4,9,3.6,12.4,0.2s3.6-9,0.2-12.4
				C401,355.1,373.3,256,369.8,242.6L369.8,242.6z"/>
			
				<linearGradient id="SVGID_00000064342363323912395790000008058451160458695611_" gradientUnits="userSpaceOnUse" x1="234.1585" y1="-371.4098" x2="261.7768" y2="-371.4098" gradientTransform="matrix(1 0 0 1 0 468)">
				<stop  offset="0" style="stop-color:#1ED6FF"/>
				<stop  offset="1" style="stop-color:#5D4AFF"/>
			</linearGradient>
			<path style="fill:url(#SVGID_00000064342363323912395790000008058451160458695611_);" d="M245.3,108.4c1.6,2.8,4.6,4.4,7.7,4.4
				c1.5,0,3.1-0.3,4.4-1.3c4.2-2.4,5.6-7.8,3.1-12.1c-5.9-10-10.6-15.7-10.8-15.8c-3.1-3.8-8.7-4.2-12.4-1c-3.8,3.3-4.2,8.7-1,12.4
				C236.3,95,240.2,99.9,245.3,108.4L245.3,108.4z"/>
			
				<linearGradient id="SVGID_00000016049365165152634760000016353965934372133803_" gradientUnits="userSpaceOnUse" x1="264.4085" y1="-266.972" x2="284.5944" y2="-266.972" gradientTransform="matrix(1 0 0 1 0 468)">
				<stop  offset="0" style="stop-color:#1ED6FF"/>
				<stop  offset="1" style="stop-color:#5D4AFF"/>
			</linearGradient>
			<path style="fill:url(#SVGID_00000016049365165152634760000016353965934372133803_);" d="M275.8,177.9c-4.9,0-8.8,4.2-8.8,9
				c0,8.8-0.8,18-2.4,26.8c-0.8,4.7,2.4,9.5,7.2,10.3c0.5,0.2,1,0.2,1.6,0.2c4.2,0,8-3.1,8.7-7.3c1.8-10,2.6-19.9,2.6-29.9v-0.5
				C284.6,181.5,280.7,177.9,275.8,177.9L275.8,177.9z"/>
			
				<linearGradient id="SVGID_00000051347842866981625810000009889675997145164207_" gradientUnits="userSpaceOnUse" x1="256.4954" y1="-324.2173" x2="281.9021" y2="-324.2173" gradientTransform="matrix(1 0 0 1 0 468)">
				<stop  offset="0" style="stop-color:#1ED6FF"/>
				<stop  offset="1" style="stop-color:#5D4AFF"/>
			</linearGradient>
			<path style="fill:url(#SVGID_00000051347842866981625810000009889675997145164207_);" d="M257,133c3.3,8.7,5.7,17.5,7.3,26.3
				c0.8,4.2,4.6,7.2,8.7,7.2c0.5,0,1.1,0,1.6-0.2c4.7-0.8,8-5.6,7-10.3c-1.8-10-4.6-19.8-8.2-29.2c-1.6-4.6-6.9-6.9-11.4-5.2
				C257.7,123.4,255.4,128.5,257,133L257,133z"/>
			
				<linearGradient id="SVGID_00000124155479271101675970000017156893143538179212_" gradientUnits="userSpaceOnUse" x1="246.4104" y1="-211.3141" x2="274.4578" y2="-211.3141" gradientTransform="matrix(1 0 0 1 0 468)">
				<stop  offset="0" style="stop-color:#1ED6FF"/>
				<stop  offset="1" style="stop-color:#5D4AFF"/>
			</linearGradient>
			<path style="fill:url(#SVGID_00000124155479271101675970000017156893143538179212_);" d="M268.6,234.9c-4.6-1.6-9.6,0.7-11.4,5.2
				c-1,2.6-2,5.2-2.9,7.7c-2,4.9-4.6,11.4-7.3,19.4c-1.6,4.6,0.7,9.6,5.4,11.3c1,0.3,2,0.5,2.9,0.5c3.6,0,7-2.3,8.3-5.9
				c2.8-7.7,5.2-14,7.2-18.8c1.1-2.8,2.1-5.4,3.3-8.2C275.6,241.6,273.2,236.5,268.6,234.9L268.6,234.9z"/>
			
				<linearGradient id="SVGID_00000028284041352122741420000013225964653411533699_" gradientUnits="userSpaceOnUse" x1="230.0088" y1="-156.4705" x2="255.0383" y2="-156.4705" gradientTransform="matrix(1 0 0 1 0 468)">
				<stop  offset="0" style="stop-color:#1ED6FF"/>
				<stop  offset="1" style="stop-color:#5D4AFF"/>
			</linearGradient>
			<path style="fill:url(#SVGID_00000028284041352122741420000013225964653411533699_);" d="M248.7,289.1c-4.7-1.5-9.6,1.3-10.9,5.9
				c-2.9,9.8-5.4,19.4-7.5,28.6c-1.1,4.7,2,9.5,6.7,10.6c0.7,0.2,1.3,0.2,2,0.2c4.1,0,7.7-2.8,8.7-6.9c2-8.8,4.4-18,7.2-27.4
				C256,295.5,253.4,290.6,248.7,289.1L248.7,289.1z"/>
			
				<linearGradient id="SVGID_00000059290977050076252310000007249029282465150602_" gradientUnits="userSpaceOnUse" x1="223.0297" y1="-99.5754" x2="242.5352" y2="-99.5754" gradientTransform="matrix(1 0 0 1 0 468)">
				<stop  offset="0" style="stop-color:#1ED6FF"/>
				<stop  offset="1" style="stop-color:#5D4AFF"/>
			</linearGradient>
			<path style="fill:url(#SVGID_00000059290977050076252310000007249029282465150602_);" d="M232,391.6c4.9-0.2,8.8-4.1,8.7-9v-2.6
				c0-7.7,0.7-16,1.8-24.8c0.7-4.9-2.8-9.3-7.7-10s-9.3,2.8-10,7.7c-1.3,9.6-2,18.8-2,27.1v2.9c0.2,4.9,4.1,8.7,8.8,8.7L232,391.6
				L232,391.6z"/>
			
				<linearGradient id="SVGID_00000150068076886005080660000002437039416885399738_" gradientUnits="userSpaceOnUse" x1="227.0065" y1="-48.5987" x2="251.8291" y2="-48.5987" gradientTransform="matrix(1 0 0 1 0 468)">
				<stop  offset="0" style="stop-color:#1ED6FF"/>
				<stop  offset="1" style="stop-color:#5D4AFF"/>
			</linearGradient>
			<path style="fill:url(#SVGID_00000150068076886005080660000002437039416885399738_);" d="M244.3,409c-1.5-4.7-6.4-7.3-10.9-6
				c-4.7,1.3-7.3,6.4-6,10.9c2,6.9,4.7,13.1,8.2,18.3c1.6,2.6,4.6,4.1,7.5,4.1c1.6,0,3.3-0.5,4.7-1.5c4.1-2.6,5.4-8.2,2.8-12.2
				C247.9,418.8,245.9,414.2,244.3,409L244.3,409z"/>
		</g>
	</g>
</g>
</svg>
