<?xml version="1.0" encoding="utf-8"?>
<!-- Generator: Adobe Illustrator 26.5.0, SVG Export Plug-In . SVG Version: 6.00 Build 0)  -->
<svg version="1.1" id="Layer_2_00000005962496507602084810000015144480476870335891_"
	 xmlns="http://www.w3.org/2000/svg" xmlns:xlink="http://www.w3.org/1999/xlink" x="0px" y="0px" viewBox="0 0 500 500"
	 style="enable-background:new 0 0 500 500;" xml:space="preserve">
<style type="text/css">
	.st0{opacity:0.5;}
	.st1{fill:#6D6D6C;}
	.st2{fill:url(#SVGID_1_);}
	.st3{fill:url(#SVGID_00000137122864729594190850000002995543175964777134_);}
	.st4{fill:url(#SVGID_00000103974344416825472820000008788906819486798258_);}
	.st5{fill:url(#SVGID_00000007403672613510575840000016245708035446941066_);}
	.st6{fill:url(#SVGID_00000177444489722643460880000000556725419474901914_);}
	.st7{fill:url(#SVGID_00000034075904697766827170000014344304385147428747_);}
</style>
<g>
	<g class="st0">
		<path class="st1" d="M356.3,330.7c53.3-67.5,39.5-231.8,39.5-231.8C303.5,118.7,256.6,76.3,250.4,70c0,0-0.1-0.7-0.4-0.4
			c-0.3-0.3-0.4,0.4-0.4,0.4c-6.3,6.3-53.2,48.9-145.4,29.1c0,0-14.1,164.7,39.7,231.8c57.5,71.7,105.9,93.4,106.2,93.2
			C250.5,424.2,299.4,402.9,356.3,330.7z M250.1,391.5c-0.1,0.1-40-20.8-87.3-78.7c-44.3-54.2-32.7-187-32.7-187
			c75.8,15.9,114.4-18.4,119.6-23.5c0,0,0.1-0.5,0.3-0.3c0.1-0.3,0.3,0.3,0.3,0.3c5.2,5.1,43.6,39.3,119.6,23.3
			c0,0,11.3,132.5-32.6,187C290.6,371,250.4,391.7,250.1,391.5L250.1,391.5z"/>
		<path class="st1" d="M330.4,212.7c-18.1-0.1-36.1-0.1-54.2-0.1c-1.7,0-3.4,0-5.1,0c0-13.2,0.1-26.3,0.1-39.5c0-6.6,0-13.2,0-19.8
			c0-2.2-1.8-4-4-4c-11.2,0-22.4-0.1-33.7-0.1c-2.2,0-4,1.8-4,4c-0.1,18.1-0.1,36.1-0.1,54.2c0,1.7,0,3.4,0,5.1
			c-13.2,0-26.3-0.1-39.5-0.1c-6.6,0-13.2,0-19.8-0.1c-2.2,0-4,1.8-4,4c0,11.2-0.1,22.4-0.1,33.7c0,1.3,0.5,2.2,1.2,2.9
			c0.7,0.8,1.6,1.2,2.9,1.2c18.1,0.1,36.1,0.1,54.2,0.1c1.7,0,3.4,0,5.1,0c0,13.2-0.1,26.3-0.1,39.5c0,6.6,0,13.2-0.1,19.8
			c0,2.2,1.8,4,4,4c11.2,0,22.4,0.1,33.7,0.1c1.3,0,2.2-0.5,2.9-1.2c0.8-0.7,1.2-1.6,1.2-2.9c0-18.1,0.1-36.1,0.1-54.2
			c0-1.7,0-3.4,0-5.1c13.2,0,26.3,0.1,39.5,0.1c6.6,0,13.2,0,19.8,0.1c2.2,0,4-1.8,4-4c0-11.2,0.1-22.4,0.1-33.7
			C334.4,214.6,332.6,212.7,330.4,212.7L330.4,212.7z"/>
		<circle class="st1" cx="455.9" cy="276.1" r="40.3"/>
		<path class="st1" d="M410.9,326.4c1-19.2-11.9-111.5-11.9-111.5c-10.6,164.3-136.3,209.8-136.3,209.8
			C438,445.5,488.6,322.1,488.6,322.1S410.1,339.8,410.9,326.4z"/>
		
			<ellipse transform="matrix(5.895555e-02 -0.9983 0.9983 5.895555e-02 -233.513 304.5392)" class="st1" cx="44.8" cy="276.1" rx="40.3" ry="40.3"/>
		<path class="st1" d="M89.9,326.4c-1-19.2,11.9-111.5,11.9-111.5C112.3,379.2,238,424.6,238,424.6
			C62.8,445.5,12.1,322.1,12.1,322.1S90.5,339.8,89.9,326.4z"/>
	</g>
	<g>
		<g>
			
				<linearGradient id="SVGID_1_" gradientUnits="userSpaceOnUse" x1="101.2302" y1="-221.2343" x2="396.0658" y2="-221.2343" gradientTransform="matrix(1 0 0 1 0 468)">
				<stop  offset="0" style="stop-color:#1ED6FF"/>
				<stop  offset="1" style="stop-color:#5D4AFF"/>
			</linearGradient>
			<path class="st2" d="M355,330.7c53.3-67.5,39.5-231.8,39.5-231.8C302.2,118.7,255.3,76.3,249.1,70c0,0-0.1-0.7-0.4-0.4
				c-0.3-0.3-0.4,0.4-0.4,0.4c-6.3,6.3-53.2,48.9-145.4,29.1c0,0-14.1,164.7,39.7,231.8c57.5,71.7,105.9,93.4,106.2,93.2
				C249.2,424.2,298,402.9,355,330.7z M248.8,391.5c-0.1,0.1-40-20.8-87.3-78.7c-44.3-54.2-32.7-187-32.7-187
				c75.8,15.9,114.4-18.4,119.6-23.5c0,0,0.1-0.5,0.3-0.3c0.1-0.3,0.3,0.3,0.3,0.3c5.2,5.1,43.6,39.3,119.6,23.3
				c0,0,11.3,132.5-32.6,187C289.3,371,249.1,391.7,248.8,391.5L248.8,391.5z"/>
			
				<linearGradient id="SVGID_00000075885083130705866260000007261411303334329788_" gradientUnits="userSpaceOnUse" x1="164.5119" y1="-234.6888" x2="332.9707" y2="-234.6888" gradientTransform="matrix(1 0 0 1 0 468)">
				<stop  offset="0" style="stop-color:#1ED6FF"/>
				<stop  offset="1" style="stop-color:#5D4AFF"/>
			</linearGradient>
			<path style="fill:url(#SVGID_00000075885083130705866260000007261411303334329788_);" d="M329.1,212.7
				c-18.1-0.1-36.1-0.1-54.2-0.1c-1.7,0-3.4,0-5.1,0c0-13.2,0.1-26.3,0.1-39.5c0-6.6,0-13.2,0-19.8c0-2.2-1.8-4-4-4
				c-11.2,0-22.4-0.1-33.7-0.1c-2.2,0-4,1.8-4,4c-0.1,18.1-0.1,36.1-0.1,54.2c0,1.7,0,3.4,0,5.1c-13.2,0-26.3-0.1-39.5-0.1
				c-6.6,0-13.2,0-19.8-0.1c-2.2,0-4,1.8-4,4c0,11.2-0.1,22.4-0.1,33.7c0,1.3,0.5,2.2,1.2,2.9c0.7,0.8,1.6,1.2,2.9,1.2
				c18.1,0.1,36.1,0.1,54.2,0.1c1.7,0,3.4,0,5.1,0c0,13.2-0.1,26.3-0.1,39.5c0,6.6,0,13.2-0.1,19.8c0,2.2,1.8,4,4,4
				c11.2,0,22.4,0.1,33.7,0.1c1.3,0,2.2-0.5,2.9-1.2c0.8-0.7,1.2-1.6,1.2-2.9c0-18.1,0.1-36.1,0.1-54.2c0-1.7,0-3.4,0-5.1
				c13.2,0,26.3,0.1,39.5,0.1c6.6,0,13.2,0,19.8,0.1c2.2,0,4-1.8,4-4c0-11.2,0.1-22.4,0.1-33.7C333.1,214.6,331.3,212.7,329.1,212.7
				L329.1,212.7z"/>
			
				<linearGradient id="SVGID_00000042699328774452855680000015148495629989142434_" gradientUnits="userSpaceOnUse" x1="281.1389" y1="-118.1869" x2="361.5659" y2="-118.1869" gradientTransform="matrix(0.9851 0.1719 -0.1719 0.9851 117.7157 337.2851)">
				<stop  offset="0" style="stop-color:#1ED6FF"/>
				<stop  offset="1" style="stop-color:#5D4AFF"/>
			</linearGradient>
			<circle style="fill:url(#SVGID_00000042699328774452855680000015148495629989142434_);" cx="454.6" cy="276.1" r="40.3"/>
			
				<linearGradient id="SVGID_00000170238545618897487750000002571899606899245953_" gradientUnits="userSpaceOnUse" x1="156.6039" y1="-53.694" x2="361.5244" y2="-53.694" gradientTransform="matrix(0.9851 0.1719 -0.1719 0.9851 117.7133 337.2865)">
				<stop  offset="0" style="stop-color:#1ED6FF"/>
				<stop  offset="1" style="stop-color:#5D4AFF"/>
			</linearGradient>
			<path style="fill:url(#SVGID_00000170238545618897487750000002571899606899245953_);" d="M409.6,326.4
				c1-19.2-11.9-111.5-11.9-111.5c-10.6,164.3-136.3,209.8-136.3,209.8c175.2,20.8,225.9-102.5,225.9-102.5S408.8,339.8,409.6,326.4
				z"/>
			
				<linearGradient id="SVGID_00000095337468245674057960000008433033761282336944_" gradientUnits="userSpaceOnUse" x1="1339.5281" y1="-302.8408" x2="1419.9552" y2="-302.8408" gradientTransform="matrix(-0.9851 0.1719 0.1719 0.9851 1454.6427 337.2505)">
				<stop  offset="0" style="stop-color:#1ED6FF"/>
				<stop  offset="1" style="stop-color:#5D4AFF"/>
			</linearGradient>
			<circle style="fill:url(#SVGID_00000095337468245674057960000008433033761282336944_);" cx="43.4" cy="276.1" r="40.3"/>
			
				<linearGradient id="SVGID_00000141452109006011519410000014942031884771750579_" gradientUnits="userSpaceOnUse" x1="1214.8702" y1="-238.3615" x2="1419.7908" y2="-238.3615" gradientTransform="matrix(-0.9851 0.1719 0.1719 0.9851 1454.6566 337.2865)">
				<stop  offset="0" style="stop-color:#1ED6FF"/>
				<stop  offset="1" style="stop-color:#5D4AFF"/>
			</linearGradient>
			<path style="fill:url(#SVGID_00000141452109006011519410000014942031884771750579_);" d="M88.6,326.4
				c-1-19.2,11.9-111.5,11.9-111.5C111,379.2,236.7,424.6,236.7,424.6C61.5,445.5,10.8,322.1,10.8,322.1S89.2,339.8,88.6,326.4z"/>
		</g>
	</g>
</g>
</svg>
