<?xml version="1.0" encoding="utf-8"?>
<!-- Generator: Adobe Illustrator 26.5.0, SVG Export Plug-In . SVG Version: 6.00 Build 0)  -->
<svg version="1.1" id="Layer_2_00000136390850851886879030000000557976542532663996_"
	 xmlns="http://www.w3.org/2000/svg" xmlns:xlink="http://www.w3.org/1999/xlink" x="0px" y="0px" viewBox="0 0 500 500"
	 style="enable-background:new 0 0 500 500;" xml:space="preserve">
<style type="text/css">
	.st0{opacity:0.5;}
	.st1{fill:#6D6D6C;}
	.st2{fill:url(#SVGID_1_);}
	.st3{fill:url(#SVGID_00000089553086991345004790000005582537724725787278_);}
	.st4{fill:url(#SVGID_00000023279250182769221610000012415464720735827872_);}
	.st5{fill:url(#SVGID_00000029758942785411034150000002429254598414499215_);}
	.st6{fill:url(#SVGID_00000134235746212222336380000017691631627808300730_);}
	.st7{fill:url(#SVGID_00000177451780995498194530000001126287716354776238_);}
	.st8{fill:url(#SVGID_00000058561136761465299650000005500640823981474709_);}
	.st9{fill:url(#SVGID_00000072964419942314451090000003334141748960690074_);}
	.st10{fill:url(#SVGID_00000178921835829693505910000010142686469655661217_);}
	.st11{fill:url(#SVGID_00000065036341081226050320000012022240128314293942_);}
	.st12{fill:url(#SVGID_00000016792980280885399910000002674578727779467413_);}
	.st13{fill:url(#SVGID_00000040554198993800111210000007044016419729211529_);}
</style>
<g>
	<g class="st0">
		<path class="st1" d="M399.7,206.6c-16-37.5-59.6-54.8-97.1-38.7L219,203.8c-0.7,0.2-1.3,0.4-1.8,0.7L122.8,245
			c-18.2,7.7-32.2,22.2-39.4,40.5c-7.4,18.4-7,38.4,0.7,56.6c7.7,18.2,22.2,32.2,40.5,39.4c8.8,3.6,18.2,5.4,27.4,5.4
			c9.9,0,19.8-2,29.2-6.1l179.9-77.3C398.4,287.7,415.7,244.1,399.7,206.6L399.7,206.6z M175.1,367.3c-14.4,6.3-30.4,6.5-45.2,0.5
			c-14.6-5.8-26.1-17.1-32.4-31.5c-6.1-14.4-6.5-30.4-0.5-45.2c5.8-14.6,17.1-26.1,31.5-32.4l93.1-40l2.2,0.7
			c27.7,7.9,47.2,33.9,47.2,62.7c0,12.8-3.8,25.4-10.8,36l-11.5,17.5L175.1,367.3L175.1,367.3z M273.4,325.2
			c8.1-12.8,12.4-27.6,12.4-42.9c0-30.6-17.8-58.4-44.7-71.7l67.2-28.8c7.6-3.2,15.5-4.9,23.2-4.9c22.9,0,44.7,13.3,54.2,35.7
			c6.3,14.4,6.5,30.4,0.5,45.2c-5.8,14.6-17.1,26.1-31.5,32.4L273.4,325.2L273.4,325.2z"/>
		<path class="st1" d="M202.1,240.7l-51.2,22c-7.4,3.2-14,7.4-20,12.8c-3.1,2.7-3.4,7.4-0.5,10.4c1.4,1.6,3.4,2.5,5.6,2.5
			c1.8,0,3.6-0.5,4.9-1.8c4.7-4.1,10.1-7.6,16-10.1l51.2-22c3.8-1.6,5.6-5.9,4-9.7C210.4,241,205.9,239.1,202.1,240.7L202.1,240.7z"
			/>
		<path class="st1" d="M124.3,293.8c-3.6-1.8-8.1-0.4-10.1,3.2c-1.1,2.2-2,4.3-2.9,6.5c-1.4,3.8,0.4,8.1,4.1,9.7
			c0.9,0.4,1.8,0.5,2.7,0.5c2.9,0,5.8-1.8,6.8-4.7c0.7-1.8,1.4-3.6,2.3-5.2C129.3,300.1,127.9,295.6,124.3,293.8L124.3,293.8z"/>
		<path class="st1" d="M81.8,229.5l27.4-36.4H145l13.1,16.9c1.4,1.8,3.6,2.9,5.8,2.9c1.6,0,3.2-0.5,4.5-1.6
			c3.2-2.5,3.8-7.2,1.3-10.4l-12.2-15.7l19.1-33.1c1.3-2.3,1.3-5.2,0-7.4l-18.7-32.2l30.4-28.8l16.9,29.2c1.3,2.3,3.8,3.8,6.5,3.8
			h43.2c2.7,0,5-1.4,6.5-3.8L283,75.3c1.3-2.3,1.3-5,0-7.4l-18.4-31.9l18.9-18c3.1-2.9,3.1-7.6,0.4-10.4c-2.9-3.1-7.6-3.1-10.4-0.4
			l-20.5,19.5h-41.1c-2.7,0-5,1.4-6.5,3.8l-21.1,36.4l-38.7,36.6H109L81.6,67.1c-2.5-3.2-7.2-4-10.4-1.4c-3.2,2.5-4,7.2-1.4,10.4
			l26.7,35.5l-18.9,33c-1.3,2.3-1.3,5.2,0,7.4L96.5,185l-26.7,35.5c-2.5,3.2-1.8,7.9,1.4,10.4c1.3,1.1,2.9,1.4,4.5,1.4
			C78,232.4,80.3,231.5,81.8,229.5L81.8,229.5z M216.1,41.7h34.6L268,71.6l-17.3,29.9h-34.6l-17.3-29.9L216.1,41.7L216.1,41.7z
			 M109.7,118.4h34.6l17.3,29.9l-17.3,29.9h-34.6l-17.3-29.9L109.7,118.4z"/>
		<path class="st1" d="M46.1,78.9c4.1,0,7.4-3.2,7.4-7.4c0-4.1-3.4-7.4-7.4-7.4H25.9c-4.1,0-7.4,3.2-7.4,7.4c0,4.1,3.2,7.4,7.4,7.4
			H46.1L46.1,78.9z"/>
		<path class="st1" d="M304.2,20h20c4.1,0,7.4-3.2,7.4-7.4s-3.4-7.4-7.4-7.4H304c-4.1,0-7.4,3.2-7.4,7.4S300.1,20,304.2,20z"/>
		<path class="st1" d="M25.9,48.7h49.9c4.1,0,7.4-3.2,7.4-7.4s-3.4-7.4-7.4-7.4H25.9c-4.1,0-7.4,3.2-7.4,7.4S21.8,48.7,25.9,48.7z"
			/>
		<path class="st1" d="M50.3,217.6H30.1c-4.1,0-7.4,3.4-7.4,7.4s3.4,7.4,7.4,7.4h20.2c4.1,0,7.4-3.4,7.4-7.4S54.4,217.6,50.3,217.6z
			"/>
		<path class="st1" d="M456.4,370.7l18.4-31.9c1.3-2.3,1.3-5.2,0-7.4l-18.4-31.9l18.9-18c3.1-2.9,3.1-7.6,0.4-10.4
			c-2.9-3.1-7.6-3.1-10.4-0.4l-20.5,19.5h-41.2c-2.7,0-5,1.4-6.5,3.8l-21.1,36.4l-38.7,36.6h-36.4l-11.9-15.9
			c-2.5-3.2-7.2-4-10.4-1.4c-3.2,2.5-4,7.2-1.4,10.4l11.2,14.9l-19.1,33.1c-1.3,2.3-1.3,5.2,0,7.4l19.1,33.1l-26.7,35.5
			c-2.5,3.2-1.8,7.9,1.4,10.4c1.3,1.1,2.9,1.4,4.5,1.4c2.2,0,4.5-1.1,5.9-2.9l27.4-36.4h35.8l28.6,36.6c1.4,1.8,3.6,2.9,5.8,2.9
			c1.6,0,3.2-0.5,4.5-1.6c3.2-2.5,3.8-7.2,1.3-10.4l-27.7-35.5l19.1-33.1c1.3-2.3,1.3-5.2,0-7.4L349.6,376l30.4-28.8l16.9,29.2
			c1.3,2.3,3.8,3.8,6.5,3.8h41.1l20.5,19.5c1.4,1.4,3.2,2,5,2c2,0,4-0.7,5.4-2.3c2.9-3.1,2.7-7.7-0.4-10.4L456.4,370.7L456.4,370.7z
			 M336.1,441.9h-34.6L284.2,412l17.3-29.9h34.6l17.3,29.9L336.1,441.9z M390.5,335.2l17.3-29.9h34.6l17.3,29.9l-17.3,29.9h-34.6
			L390.5,335.2z"/>
		<path class="st1" d="M242.1,481.3h-20.2c-4.1,0-7.4,3.4-7.4,7.4s3.4,7.4,7.4,7.4h20.2c4.1,0,7.4-3.4,7.4-7.4
			S246,481.3,242.1,481.3z"/>
		<path class="st1" d="M419,481.3h-20.2c-4.1,0-7.4,3.4-7.4,7.4s3.4,7.4,7.4,7.4H419c4.1,0,7.4-3.4,7.4-7.4S423.1,481.3,419,481.3z"
			/>
		<path class="st1" d="M435,452.9h-36.2c-4.1,0-7.4,3.4-7.4,7.4s3.4,7.4,7.4,7.4H435c4.1,0,7.4-3.4,7.4-7.4S439.1,452.9,435,452.9z"
			/>
	</g>
	<g>
		<g>
			
				<linearGradient id="SVGID_1_" gradientUnits="userSpaceOnUse" x1="76.2766" y1="-193.5611" x2="403.8664" y2="-193.5611" gradientTransform="matrix(1 0 0 1 0 468)">
				<stop  offset="0" style="stop-color:#1ED6FF"/>
				<stop  offset="1" style="stop-color:#5D4AFF"/>
			</linearGradient>
			<path class="st2" d="M397.9,206.6c-16-37.5-59.6-54.8-97.1-38.7l-83.6,35.8c-0.7,0.2-1.3,0.4-1.8,0.7L121,245
				c-18.2,7.7-32.2,22.2-39.4,40.5c-7.4,18.4-7,38.4,0.7,56.6c7.7,18.2,22.2,32.2,40.5,39.4c8.8,3.6,18.2,5.4,27.4,5.4
				c9.9,0,19.8-2,29.2-6.1l179.9-77.3C396.6,287.7,413.9,244.1,397.9,206.6L397.9,206.6z M173.3,367.3c-14.4,6.3-30.4,6.5-45.2,0.5
				c-14.6-5.8-26.1-17.1-32.4-31.5c-6.1-14.4-6.5-30.4-0.5-45.2c5.8-14.6,17.1-26.1,31.5-32.4l93.1-40l2.2,0.7
				c27.7,7.9,47.2,33.9,47.2,62.7c0,12.8-3.8,25.4-10.8,36l-11.5,17.5L173.3,367.3L173.3,367.3z M271.6,325.2
				c8.1-12.8,12.4-27.6,12.4-42.9c0-30.6-17.8-58.4-44.7-71.7l67.2-28.8c7.6-3.2,15.5-4.9,23.2-4.9c22.9,0,44.7,13.3,54.2,35.7
				c6.3,14.4,6.5,30.4,0.5,45.2c-5.8,14.6-17.1,26.1-31.5,32.4L271.6,325.2L271.6,325.2z"/>
			
				<linearGradient id="SVGID_00000158020286801609255370000006082354671278355366_" gradientUnits="userSpaceOnUse" x1="126.7332" y1="-203.7335" x2="210.662" y2="-203.7335" gradientTransform="matrix(1 0 0 1 0 468)">
				<stop  offset="0" style="stop-color:#1ED6FF"/>
				<stop  offset="1" style="stop-color:#5D4AFF"/>
			</linearGradient>
			<path style="fill:url(#SVGID_00000158020286801609255370000006082354671278355366_);" d="M200.3,240.7l-51.2,22
				c-7.4,3.2-14,7.4-20,12.8c-3.1,2.7-3.4,7.4-0.5,10.4c1.4,1.6,3.4,2.5,5.6,2.5c1.8,0,3.6-0.5,4.9-1.8c4.7-4.1,10.1-7.6,16-10.1
				l51.2-22c3.8-1.6,5.6-5.9,4-9.7C208.6,241,204.1,239.1,200.3,240.7L200.3,240.7z"/>
			
				<linearGradient id="SVGID_00000065049218566854998120000010297421469482034067_" gradientUnits="userSpaceOnUse" x1="109.0755" y1="-164.571" x2="126.5672" y2="-164.571" gradientTransform="matrix(1 0 0 1 0 468)">
				<stop  offset="0" style="stop-color:#1ED6FF"/>
				<stop  offset="1" style="stop-color:#5D4AFF"/>
			</linearGradient>
			<path style="fill:url(#SVGID_00000065049218566854998120000010297421469482034067_);" d="M122.5,293.8c-3.6-1.8-8.1-0.4-10.1,3.2
				c-1.1,2.2-2,4.3-2.9,6.5c-1.4,3.8,0.4,8.1,4.1,9.7c0.9,0.4,1.8,0.5,2.7,0.5c2.9,0,5.8-1.8,6.8-4.7c0.7-1.8,1.4-3.6,2.3-5.2
				C127.5,300.1,126.1,295.6,122.5,293.8L122.5,293.8z"/>
			
				<linearGradient id="SVGID_00000068678250962680102900000013000595740156977807_" gradientUnits="userSpaceOnUse" x1="66.3921" y1="-349.1641" x2="284.0505" y2="-349.1641" gradientTransform="matrix(1 0 0 1 0 468)">
				<stop  offset="0" style="stop-color:#1ED6FF"/>
				<stop  offset="1" style="stop-color:#5D4AFF"/>
			</linearGradient>
			<path style="fill:url(#SVGID_00000068678250962680102900000013000595740156977807_);" d="M80,229.5l27.4-36.4h35.8l13.1,16.9
				c1.4,1.8,3.6,2.9,5.8,2.9c1.6,0,3.2-0.5,4.5-1.6c3.2-2.5,3.8-7.2,1.3-10.4l-12.2-15.7l19.1-33.1c1.3-2.3,1.3-5.2,0-7.4L156,112.4
				l30.4-28.8l16.9,29.2c1.3,2.3,3.8,3.8,6.5,3.8h43.2c2.7,0,5-1.4,6.5-3.8l21.6-37.5c1.3-2.3,1.3-5,0-7.4l-18.4-31.9l18.9-18
				c3.1-2.9,3.1-7.6,0.4-10.4c-2.9-3.1-7.6-3.1-10.4-0.4l-20.5,19.5H210c-2.7,0-5,1.4-6.5,3.8l-21.1,36.4l-38.7,36.6h-36.6
				L79.8,67.1c-2.5-3.2-7.2-4-10.4-1.4c-3.2,2.5-4,7.2-1.4,10.4l26.7,35.5l-18.9,33c-1.3,2.3-1.3,5.2,0,7.4L94.7,185l-26.7,35.5
				c-2.5,3.2-1.8,7.9,1.4,10.4c1.3,1.1,2.9,1.4,4.5,1.4C76.2,232.4,78.5,231.5,80,229.5L80,229.5z M214.3,41.7h34.6l17.3,29.9
				l-17.3,29.9h-34.6l-17.3-29.9L214.3,41.7L214.3,41.7z M107.9,118.4h34.6l17.3,29.9l-17.3,29.9h-34.6l-17.3-29.9L107.9,118.4z"/>
			
				<linearGradient id="SVGID_00000066515559552384850620000006259236907753066400_" gradientUnits="userSpaceOnUse" x1="16.6472" y1="-396.4437" x2="51.6619" y2="-396.4437" gradientTransform="matrix(1 0 0 1 0 468)">
				<stop  offset="0" style="stop-color:#1ED6FF"/>
				<stop  offset="1" style="stop-color:#5D4AFF"/>
			</linearGradient>
			<path style="fill:url(#SVGID_00000066515559552384850620000006259236907753066400_);" d="M44.3,78.9c4.1,0,7.4-3.2,7.4-7.4
				c0-4.1-3.4-7.4-7.4-7.4H24.1c-4.1,0-7.4,3.2-7.4,7.4c0,4.1,3.2,7.4,7.4,7.4H44.3L44.3,78.9z"/>
			
				<linearGradient id="SVGID_00000132057654150025291110000001333815590034093495_" gradientUnits="userSpaceOnUse" x1="294.8914" y1="-455.3418" x2="329.9061" y2="-455.3418" gradientTransform="matrix(1 0 0 1 0 468)">
				<stop  offset="0" style="stop-color:#1ED6FF"/>
				<stop  offset="1" style="stop-color:#5D4AFF"/>
			</linearGradient>
			<path style="fill:url(#SVGID_00000132057654150025291110000001333815590034093495_);" d="M302.4,20h20c4.1,0,7.4-3.2,7.4-7.4
				s-3.4-7.4-7.4-7.4h-20.2c-4.1,0-7.4,3.2-7.4,7.4S298.3,20,302.4,20z"/>
			
				<linearGradient id="SVGID_00000108306012679977785710000017950451546401058737_" gradientUnits="userSpaceOnUse" x1="16.6652" y1="-426.7033" x2="81.4532" y2="-426.7033" gradientTransform="matrix(1 0 0 1 0 468)">
				<stop  offset="0" style="stop-color:#1ED6FF"/>
				<stop  offset="1" style="stop-color:#5D4AFF"/>
			</linearGradient>
			<path style="fill:url(#SVGID_00000108306012679977785710000017950451546401058737_);" d="M24.1,48.7H74c4.1,0,7.4-3.2,7.4-7.4
				S78,33.9,74,33.9H24.1c-4.1,0-7.4,3.2-7.4,7.4S20,48.7,24.1,48.7z"/>
			
				<linearGradient id="SVGID_00000183251348697915772350000007466184676242434207_" gradientUnits="userSpaceOnUse" x1="20.898" y1="-242.9843" x2="55.9126" y2="-242.9843" gradientTransform="matrix(1 0 0 1 0 468)">
				<stop  offset="0" style="stop-color:#1ED6FF"/>
				<stop  offset="1" style="stop-color:#5D4AFF"/>
			</linearGradient>
			<path style="fill:url(#SVGID_00000183251348697915772350000007466184676242434207_);" d="M48.5,217.6H28.3
				c-4.1,0-7.4,3.4-7.4,7.4s3.2,7.4,7.4,7.4h20.2c4.1,0,7.4-3.4,7.4-7.4S52.6,217.6,48.5,217.6z"/>
			
				<linearGradient id="SVGID_00000160156696256121226540000014168634987698239389_" gradientUnits="userSpaceOnUse" x1="258.2164" y1="-85.4734" x2="475.8747" y2="-85.4734" gradientTransform="matrix(1 0 0 1 0 468)">
				<stop  offset="0" style="stop-color:#1ED6FF"/>
				<stop  offset="1" style="stop-color:#5D4AFF"/>
			</linearGradient>
			<path style="fill:url(#SVGID_00000160156696256121226540000014168634987698239389_);" d="M454.6,370.7l18.4-31.9
				c1.3-2.3,1.3-5.2,0-7.4l-18.4-31.9l18.9-18c3.1-2.9,3.1-7.6,0.4-10.4c-2.9-3.1-7.6-3.1-10.4-0.4l-20.5,19.5h-41.2
				c-2.7,0-5,1.4-6.5,3.8l-21.1,36.4l-38.7,36.6H299l-11.9-15.9c-2.5-3.2-7.2-4-10.4-1.4c-3.2,2.5-4,7.2-1.4,10.4l11.2,14.9
				l-19.1,33.1c-1.3,2.3-1.3,5.2,0,7.4l19.1,33.1l-26.7,35.5c-2.5,3.2-1.8,7.9,1.4,10.4c1.3,1.1,2.9,1.4,4.5,1.4
				c2.2,0,4.5-1.1,5.9-2.9l27.4-36.4h35.8l28.6,36.6c1.4,1.8,3.6,2.9,5.8,2.9c1.6,0,3.2-0.5,4.5-1.6c3.2-2.5,3.8-7.2,1.3-10.4
				l-27.7-35.5l19.1-33.1c1.3-2.3,1.3-5.2,0-7.4L347.8,376l30.4-28.8l16.9,29.2c1.3,2.3,3.8,3.8,6.5,3.8h41.1l20.5,19.5
				c1.4,1.4,3.2,2,5,2c2,0,4-0.7,5.4-2.3c2.9-3.1,2.7-7.7-0.4-10.4L454.6,370.7L454.6,370.7z M334.3,441.9h-34.6L282.4,412
				l17.3-29.9h34.6l17.3,29.9L334.3,441.9z M388.7,335.2l17.3-29.9h34.6l17.3,29.9l-17.3,29.9H406L388.7,335.2z"/>
			
				<linearGradient id="SVGID_00000139979339081366134990000011579217745497744523_" gradientUnits="userSpaceOnUse" x1="212.6501" y1="20.7065" x2="247.6288" y2="20.7065" gradientTransform="matrix(1 0 0 1 0 468)">
				<stop  offset="0" style="stop-color:#1ED6FF"/>
				<stop  offset="1" style="stop-color:#5D4AFF"/>
			</linearGradient>
			<path style="fill:url(#SVGID_00000139979339081366134990000011579217745497744523_);" d="M240.3,481.3h-20.2
				c-4.1,0-7.4,3.4-7.4,7.4s3.4,7.4,7.4,7.4h20.2c4.1,0,7.4-3.4,7.4-7.4S244.2,481.3,240.3,481.3z"/>
			
				<linearGradient id="SVGID_00000016759342833172776270000005663349183123390636_" gradientUnits="userSpaceOnUse" x1="389.5607" y1="20.7065" x2="424.5574" y2="20.7065" gradientTransform="matrix(1 0 0 1 0 468)">
				<stop  offset="0" style="stop-color:#1ED6FF"/>
				<stop  offset="1" style="stop-color:#5D4AFF"/>
			</linearGradient>
			<path style="fill:url(#SVGID_00000016759342833172776270000005663349183123390636_);" d="M417.2,481.3H397
				c-4.1,0-7.4,3.4-7.4,7.4s3.4,7.4,7.4,7.4h20.2c4.1,0,7.4-3.4,7.4-7.4S421.3,481.3,417.2,481.3z"/>
			
				<linearGradient id="SVGID_00000127016563979095633830000000832791415683256963_" gradientUnits="userSpaceOnUse" x1="389.5427" y1="-7.7519" x2="440.5877" y2="-7.7519" gradientTransform="matrix(1 0 0 1 0 468)">
				<stop  offset="0" style="stop-color:#1ED6FF"/>
				<stop  offset="1" style="stop-color:#5D4AFF"/>
			</linearGradient>
			<path style="fill:url(#SVGID_00000127016563979095633830000000832791415683256963_);" d="M433.2,452.9H397
				c-4.1,0-7.4,3.4-7.4,7.4s3.4,7.4,7.4,7.4h36.2c4.1,0,7.4-3.4,7.4-7.4S437.3,452.9,433.2,452.9z"/>
		</g>
	</g>
</g>
</svg>
