<?xml version="1.0" encoding="utf-8"?>
<!-- Generator: Adobe Illustrator 26.5.0, SVG Export Plug-In . SVG Version: 6.00 Build 0)  -->
<svg version="1.1" id="Layer_2_00000031175258189676449640000017881262061947696786_"
	 xmlns="http://www.w3.org/2000/svg" xmlns:xlink="http://www.w3.org/1999/xlink" x="0px" y="0px" viewBox="0 0 500 500"
	 style="enable-background:new 0 0 500 500;" xml:space="preserve">
<style type="text/css">
	.st0{opacity:0.5;}
	.st1{fill:#6D6D6C;}
	.st2{fill:url(#SVGID_1_);}
	.st3{fill:url(#SVGID_00000002383259360467233670000001199814215718884009_);}
	.st4{fill:url(#SVGID_00000003792506890547717330000000409499247522142124_);}
</style>
<g>
	<g class="st0">
		<path class="st1" d="M181.2,200.3H181c-31.7,0-57.5,25.6-57.6,57.3c-0.2,31.7,25.6,57.6,57.3,57.8h0.2c31.7,0,57.5-25.6,57.6-57.3
			C238.6,226.3,212.8,200.5,181.2,200.3L181.2,200.3z M181,300.6L181,300.6c-23.7-0.2-42.6-19.3-42.6-42.8
			c0.2-23.3,19.1-42.4,42.6-42.4h0.2c23.5,0.2,42.4,19.3,42.4,42.8C223.4,281.5,204.3,300.6,181,300.6z"/>
		<path class="st1" d="M411.4,202.9c-0.7-0.4-1.2-0.7-1.8-1.1l-1.4-0.7c1.9-1.6,3.9-3.2,5.7-5c11-11,17-25.5,17.2-40.8
			c0.2-31.8-25.8-58-57.6-58h-0.2c-15.4,0-29.9,6-40.7,16.8c-11,11-17,25.5-17.2,40.8c0,4.4,0.5,8.8,1.4,13.1l-11.1-2.7
			c-10.6-2.5-19.6-10.1-23.9-20.2l-39.3-91.8c-0.2-0.5-0.7-1.2-1.1-1.6l-4.2-19.6c0,0,0-0.2,0-0.4c-1.9-8.1-7.1-15-14.3-19.3
			S207.2,7,199,9.1c-6.9,1.8-12.9,5.7-17.2,11.1c-4.1-5.3-9.9-9.4-17-11.3c-16.8-4.2-34,5.8-38.4,22.6c0,0.2,0,0.2,0,0.4l-46,208.5
			c-7.8,30.4-9.5,61.7-5.1,92.7l5.1,35.5c4.2,29.7,6.4,59.8,6.4,89.7v25.3c0,4.1,3.4,7.4,7.4,7.4c4.1,0,7.4-3.4,7.4-7.4v-25.3
			c0-30.6-2.1-61.5-6.5-91.8L90.1,331c-4.1-29.2-2.5-58.5,5-87c0-0.2,0-0.2,0-0.2l46-208.5c2.3-8.7,11.3-14,20.2-11.8
			c4.2,1.1,7.8,3.9,10.1,7.6c2.3,3.9,2.8,8.3,1.8,12.6c0,0.2,0,0.4-0.2,0.5L146,184.4c-0.7,4.1,1.9,8,6,8.8c4.1,0.7,8-1.9,8.8-6
			l21-109.8l20.7,110c0.7,4.1,4.6,6.7,8.7,6c4.1-0.7,6.7-4.6,6-8.7L190.7,44.3c0-0.2,0-0.4-0.2-0.4c-1.1-4.2-0.4-8.7,1.9-12.6
			s5.8-6.5,10.3-7.6c4.2-1.1,8.7-0.4,12.6,1.9c3.7,2.3,6.4,5.8,7.4,10.1l44.6,208.8v0.2c5.8,23.7,7.8,44.4,6,67.5
			c-0.4,4.1,2.8,7.8,6.9,8c0.2,0,0.4,0,0.5,0c3.9,0,7.1-3,7.4-6.9c1.8-24.8-0.2-47-6.4-72.1l-3.7-17.7l30.1,9.5
			c0.7,0.2,1.6,0.4,2.3,0.4c3.2,0,6.2-1.9,7.1-5.3c1.2-3.9-0.9-8.1-5-9.4l-38.2-12l-17.2-80.5l10.8,25.1
			c6.2,14.5,18.9,25.3,34.3,28.8l21.4,5.1c2.3,3.9,5.1,7.4,8.5,10.8c11,11,25.5,17,40.8,17.2h0.2c6.5,0,12.9-1.1,18.9-3.2l10.8,5.5
			c0.4,0.2,0.9,0.5,1.4,0.7c14.5,8.1,21,25.6,15.6,41.9l-22.8,66.5c-3.5,10.4-11.8,18.4-22.3,21.7c-28.1,8.7-91.4,27.1-115.8,34.1
			c-3.2,0.9-6.7,0.5-9.5-1.1c-3-1.8-5-4.4-5.8-7.6c-1.6-6.4,1.9-13.1,8.3-15l97.6-29.9c9.2-2.8,16.3-9.9,19.1-18.9l10.6-33.4
			c1.2-3.9-0.9-8.1-5-9.4c-4.1-1.2-8.1,0.9-9.4,5l-10.6,33.4c-1.4,4.4-5,7.8-9.2,9.2l-97.6,29.9c-14,4.2-22.1,18.7-18.4,33.1
			c1.9,7.2,6.5,13.3,12.9,17c4.2,2.5,8.8,3.5,13.4,3.5c2.5,0,5.1-0.4,7.6-1.1c24.6-7.1,87.9-25.5,116.2-34.3
			c5.5-1.8,10.6-4.4,15.2-7.8v98.1c0,4.1,3.4,7.4,7.4,7.4c4.1,0,7.4-3.4,7.4-7.4V336.1c0-0.4,0-0.7-0.2-1.1c0.7-1.6,1.4-3.4,2.1-5
			l22.8-66.5C441.6,239.7,432.3,214.6,411.4,202.9L411.4,202.9z M373.2,198L373.2,198c-11.7,0-22.3-4.6-30.4-12.7
			c-2.7-2.7-5-5.7-6.7-8.8c-0.4-0.9-0.7-1.8-1.4-2.5c-2.8-5.8-4.4-12.2-4.4-18.9l0,0c0-11.5,4.6-22.3,12.7-30.2
			c8.1-8,18.7-12.4,30.2-12.4h0.2c11.5,0,22.3,4.6,30.2,12.7c8,8.1,12.6,18.9,12.4,30.4c0,11.5-4.6,22.3-12.7,30.2
			C395.3,193.6,384.5,198,373.2,198L373.2,198z"/>
		<path class="st1" d="M269.1,403.8c-4.1-0.2-7.8,2.8-8,6.9c-1.1,15.4-1.8,36.8-1.8,50.6v22.3c0,4.1,3.4,7.4,7.4,7.4
			c4.1,0,7.4-3.4,7.4-7.4v-22.3c0-13.6,0.7-34.5,1.8-49.5C276.3,407.7,273.1,404.2,269.1,403.8z"/>
	</g>
	<g>
		<g>
			
				<linearGradient id="SVGID_1_" gradientUnits="userSpaceOnUse" x1="121.5796" y1="-210.1465" x2="236.6959" y2="-210.1465" gradientTransform="matrix(1 0 0 1 0 468)">
				<stop  offset="0" style="stop-color:#1ED6FF"/>
				<stop  offset="1" style="stop-color:#5D4AFF"/>
			</linearGradient>
			<path class="st2" d="M179.4,200.3h-0.2c-31.7,0-57.5,25.6-57.6,57.3c-0.2,31.7,25.6,57.6,57.3,57.8h0.2
				c31.7,0,57.5-25.6,57.6-57.3C236.9,226.3,211.1,200.5,179.4,200.3L179.4,200.3z M179.2,300.6L179.2,300.6
				c-23.7-0.2-42.6-19.3-42.6-42.8c0.2-23.3,19.1-42.4,42.6-42.4h0.2c23.5,0.2,42.4,19.3,42.4,42.8
				C221.7,281.5,202.6,300.6,179.2,300.6z"/>
			
				<linearGradient id="SVGID_00000072282363252951646940000018208934372190694310_" gradientUnits="userSpaceOnUse" x1="71.2841" y1="-218.5" x2="434.8852" y2="-218.5" gradientTransform="matrix(1 0 0 1 0 468)">
				<stop  offset="0" style="stop-color:#1ED6FF"/>
				<stop  offset="1" style="stop-color:#5D4AFF"/>
			</linearGradient>
			<path style="fill:url(#SVGID_00000072282363252951646940000018208934372190694310_);" d="M409.6,202.9c-0.7-0.4-1.2-0.7-1.8-1.1
				l-1.4-0.7c1.9-1.6,3.9-3.2,5.7-5c11-11,17-25.5,17.2-40.8c0.2-31.8-25.8-58-57.6-58h-0.2c-15.4,0-29.9,6-40.7,16.8
				c-11,11-17,25.5-17.2,40.8c0,4.4,0.5,8.8,1.4,13.1l-11.1-2.7c-10.6-2.5-19.6-10.1-23.9-20.2l-39.3-91.8c-0.2-0.5-0.7-1.2-1.1-1.6
				l-4.2-19.6c0,0,0-0.2,0-0.4c-1.9-8.1-7.1-15-14.3-19.3c-7.2-4.2-15.7-5.7-23.9-3.5c-6.9,1.8-12.9,5.7-17.2,11.1
				c-4.1-5.3-9.9-9.4-17-11.3c-16.8-4.2-34,5.8-38.4,22.6c0,0.2,0,0.2,0,0.4l-46,208.5c-7.8,30.4-9.5,61.7-5.1,92.7l5.1,35.5
				c4.2,29.7,6.4,59.8,6.4,89.7v25.3c0,4.1,3.4,7.4,7.4,7.4s7.4-3.4,7.4-7.4v-25.3c0-30.6-2.1-61.5-6.5-91.8L88.3,331
				c-4.1-29.2-2.5-58.5,5-87c0-0.2,0-0.2,0-0.2l46-208.5c2.3-8.7,11.3-14,20.2-11.8c4.2,1.1,7.8,3.9,10.1,7.6
				c2.3,3.9,2.8,8.3,1.8,12.6c0,0.2,0,0.4-0.2,0.5l-26.9,140.2c-0.7,4.1,1.9,8,6,8.8c4.1,0.7,8-1.9,8.8-6l21-109.8l20.7,110
				c0.7,4.1,4.6,6.7,8.7,6c4.1-0.7,6.7-4.6,6-8.7L189,44.3c0-0.2,0-0.4-0.2-0.4c-1.1-4.2-0.4-8.7,1.9-12.6c2.3-3.9,5.8-6.5,10.3-7.6
				c4.2-1.1,8.7-0.4,12.6,1.9c3.7,2.3,6.4,5.8,7.4,10.1l44.6,208.8v0.2c5.8,23.7,7.8,44.4,6,67.5c-0.4,4.1,2.8,7.8,6.9,8
				c0.2,0,0.4,0,0.5,0c3.9,0,7.1-3,7.4-6.9c1.8-24.8-0.2-47-6.4-72.1l-3.7-17.7l30.1,9.5c0.7,0.2,1.6,0.4,2.3,0.4
				c3.2,0,6.2-1.9,7.1-5.3c1.2-3.9-0.9-8.1-5-9.4l-38.2-12l-17.2-80.5l10.8,25.1c6.2,14.5,18.9,25.3,34.3,28.8l21.4,5.1
				c2.3,3.9,5.1,7.4,8.5,10.8c11,11,25.5,17,40.8,17.2h0.2c6.5,0,12.9-1.1,18.9-3.2l10.8,5.5c0.4,0.2,0.9,0.5,1.4,0.7
				c14.5,8.1,21,25.6,15.6,41.9l-22.8,66.5c-3.5,10.4-11.8,18.4-22.3,21.7c-28.1,8.7-91.4,27.1-115.8,34.1c-3.2,0.9-6.7,0.5-9.5-1.1
				c-3-1.8-5-4.4-5.8-7.6c-1.6-6.4,1.9-13.1,8.3-15l97.6-29.9c9.2-2.8,16.3-9.9,19.1-18.9l10.6-33.4c1.2-3.9-0.9-8.1-5-9.4
				c-4.1-1.2-8.1,0.9-9.4,5l-10.6,33.4c-1.4,4.4-5,7.8-9.2,9.2l-97.6,29.9c-14,4.2-22.1,18.7-18.4,33.1c1.9,7.2,6.5,13.3,12.9,17
				c4.2,2.5,8.8,3.5,13.4,3.5c2.5,0,5.1-0.4,7.6-1.1c24.6-7.1,87.9-25.5,116.2-34.3c5.5-1.8,10.6-4.4,15.2-7.8v98.1
				c0,4.1,3.4,7.4,7.4,7.4s7.4-3.4,7.4-7.4V336.1c0-0.4,0-0.7-0.2-1.1c0.7-1.6,1.4-3.4,2.1-5l22.8-66.5
				C439.9,239.7,430.5,214.6,409.6,202.9L409.6,202.9z M371.4,198L371.4,198c-11.7,0-22.3-4.6-30.4-12.7c-2.7-2.7-5-5.7-6.7-8.8
				c-0.4-0.9-0.7-1.8-1.4-2.5c-2.8-5.8-4.4-12.2-4.4-18.9l0,0c0-11.5,4.6-22.3,12.7-30.2s18.7-12.4,30.2-12.4h0.2
				c11.5,0,22.3,4.6,30.2,12.7c8,8.1,12.6,18.9,12.4,30.4c0,11.5-4.6,22.3-12.7,30.2C393.5,193.6,382.8,198,371.4,198L371.4,198z"/>
			
				<linearGradient id="SVGID_00000003071088022163337960000001705044700835893635_" gradientUnits="userSpaceOnUse" x1="257.4721" y1="-20.5916" x2="274.2177" y2="-20.5916" gradientTransform="matrix(1 0 0 1 0 468)">
				<stop  offset="0" style="stop-color:#1ED6FF"/>
				<stop  offset="1" style="stop-color:#5D4AFF"/>
			</linearGradient>
			<path style="fill:url(#SVGID_00000003071088022163337960000001705044700835893635_);" d="M267.3,403.8c-4.1-0.2-7.8,2.8-8,6.9
				c-1.1,15.4-1.8,36.8-1.8,50.6v22.3c0,4.1,3.4,7.4,7.4,7.4c4.1,0,7.4-3.4,7.4-7.4v-22.3c0-13.6,0.7-34.5,1.8-49.5
				C274.5,407.7,271.4,404.2,267.3,403.8z"/>
		</g>
	</g>
</g>
</svg>
