<?xml version="1.0" encoding="utf-8"?>
<!-- Generator: Adobe Illustrator 26.5.0, SVG Export Plug-In . SVG Version: 6.00 Build 0)  -->
<svg version="1.1" id="Layer_2_00000090286785550536463440000015556370477445419650_"
	 xmlns="http://www.w3.org/2000/svg" xmlns:xlink="http://www.w3.org/1999/xlink" x="0px" y="0px" viewBox="0 0 500 500"
	 style="enable-background:new 0 0 500 500;" xml:space="preserve">
<style type="text/css">
	.st0{opacity:0.5;}
	.st1{fill:#6D6D6C;}
	.st2{fill:url(#SVGID_1_);}
	.st3{fill:url(#SVGID_00000010991007944309003050000000409730293425094575_);}
	.st4{fill:url(#SVGID_00000018948939710339082210000004749350472540750773_);}
	.st5{fill:url(#SVGID_00000143597942313560689410000012565106350570993817_);}
</style>
<g>
	<g class="st0">
		<path class="st1" d="M417,78.9c-4.3-4.1-11.2-4.1-15.5,0.2c-4.3,4.3-4.1,11.2,0.2,15.5c42.5,41.1,65.9,96.5,65.9,155.4
			c0,84.9-49.2,158.5-120.5,194c18.4-21.7,29.6-49.7,29.6-80.3c0-68.8-55.9-124.7-124.7-124.7c-56.7,0-102.8-46.1-102.8-102.8
			S195.1,33.5,251.5,33.3c29.1,0.2,57.1,5.8,83.6,17c5.5,2.4,12-0.3,14.3-5.8c2.4-5.5-0.2-12-5.8-14.3
			c-29.4-12.4-60.7-18.7-92.9-18.7c-131.4,0-238.3,107-238.3,238.3S119.7,488.5,251,488.5h2.1l0,0c130.5-1,236.3-107.6,236.3-238.3
			C489.5,185,463.7,124.1,417,78.9L417,78.9z M252.9,466.7h-1c-0.2,0-0.5,0-0.7,0c-119.3,0-216.5-97.2-216.5-216.5
			c0-86.3,50.7-160.9,123.8-195.7c-19.3,22-31,50.6-31,82c0,68.8,55.9,124.7,124.7,124.7c56.7,0,102.8,46.1,102.8,102.8
			S309.2,466.1,252.9,466.7L252.9,466.7z"/>
		<path class="st1" d="M371.4,70.1l3.3,2.2c1.9,1.4,4.1,2.1,6.2,2.1c3.4,0,6.9-1.5,8.9-4.6c3.4-5,2.2-11.7-2.8-15.1l-3.6-2.4
			c-5-3.3-11.9-2.1-15.1,3.1C365,60,366.4,66.7,371.4,70.1L371.4,70.1z"/>
		<path class="st1" d="M207.4,138.6c0,24.1,19.6,43.7,43.7,43.7s43.7-19.6,43.7-43.7S275.1,94.9,251,94.9S207.4,114.3,207.4,138.6
			L207.4,138.6z M272.9,138.6c0,12-9.8,21.8-21.8,21.8c-12,0-21.8-9.8-21.8-21.8c0-12,9.8-21.8,21.8-21.8
			C263.1,116.6,272.9,126.4,272.9,138.6z"/>
		<path class="st1" d="M251,318.1c-6,0-11,4.8-11,11c0,6,4.8,10.8,11,10.8c12,0,21.8,9.8,21.8,21.8s-9.8,21.8-21.8,21.8
			c-12,0-21.8-9.8-21.8-21.8c0-6-4.8-11-11-11c-6.2,0-11,4.8-11,11c0,24.1,19.6,43.7,43.7,43.7s43.7-19.6,43.7-43.7
			S275.3,318.1,251,318.1L251,318.1z"/>
	</g>
	<g>
		<g>
			
				<linearGradient id="SVGID_1_" gradientUnits="userSpaceOnUse" x1="80.633" y1="-386.6947" x2="417.8769" y2="-49.468" gradientTransform="matrix(1 0 0 1 0 468)">
				<stop  offset="0" style="stop-color:#1ED6FF"/>
				<stop  offset="1" style="stop-color:#5D4AFF"/>
			</linearGradient>
			<path class="st2" d="M415.2,78.9c-4.3-4.1-11.2-4.1-15.5,0.2c-4.3,4.3-4.1,11.2,0.2,15.5c42.5,41.1,65.9,96.5,65.9,155.4
				c0,84.9-49.2,158.5-120.5,194c18.4-21.7,29.6-49.7,29.6-80.3c0-68.8-55.9-124.7-124.7-124.7c-56.7,0-102.8-46.1-102.8-102.8
				S193.4,33.5,249.8,33.3c29.1,0.2,57.1,5.8,83.6,17c5.5,2.4,12-0.3,14.3-5.8c2.4-5.5-0.2-12-5.8-14.3
				c-29.4-12.4-60.7-18.7-92.9-18.7c-131.4,0-238.3,107-238.3,238.3s107.3,238.7,238.7,238.7h2.1l0,0
				c130.5-1,236.3-107.6,236.3-238.3C487.8,185,462,124.1,415.2,78.9L415.2,78.9z M251.2,466.7h-1c-0.2,0-0.5,0-0.7,0
				C130.1,466.7,33,369.5,33,250.2c0-86.3,50.7-160.9,123.8-195.7c-19.3,22-31,50.6-31,82c0,68.8,55.9,124.7,124.7,124.7
				c56.7,0,102.8,46.1,102.8,102.8S307.4,466.1,251.2,466.7L251.2,466.7z"/>
			
				<linearGradient id="SVGID_00000156578510814955300910000005312399791075465615_" gradientUnits="userSpaceOnUse" x1="368.2517" y1="-414.8498" x2="386.6227" y2="-396.4787" gradientTransform="matrix(1 0 0 1 0 468)">
				<stop  offset="0" style="stop-color:#1ED6FF"/>
				<stop  offset="1" style="stop-color:#5D4AFF"/>
			</linearGradient>
			<path style="fill:url(#SVGID_00000156578510814955300910000005312399791075465615_);" d="M369.7,70.1l3.3,2.2
				c1.9,1.4,4.1,2.1,6.2,2.1c3.4,0,6.9-1.5,8.9-4.6c3.4-5,2.2-11.7-2.8-15.1l-3.6-2.4c-5-3.3-11.9-2.1-15.1,3.1
				C363.3,60,364.7,66.7,369.7,70.1L369.7,70.1z"/>
			
				<linearGradient id="SVGID_00000044865498928938366860000006584537835868830636_" gradientUnits="userSpaceOnUse" x1="218.4138" y1="-360.3241" x2="280.1775" y2="-298.5604" gradientTransform="matrix(1 0 0 1 0 468)">
				<stop  offset="0" style="stop-color:#1ED6FF"/>
				<stop  offset="1" style="stop-color:#5D4AFF"/>
			</linearGradient>
			<path style="fill:url(#SVGID_00000044865498928938366860000006584537835868830636_);" d="M205.6,138.6
				c0,24.1,19.6,43.7,43.7,43.7s43.7-19.6,43.7-43.7s-19.6-43.7-43.7-43.7S205.6,114.3,205.6,138.6L205.6,138.6z M271.1,138.6
				c0,12-9.8,21.8-21.8,21.8s-21.8-9.8-21.8-21.8c0-12,9.8-21.8,21.8-21.8C261.3,116.6,271.1,126.4,271.1,138.6z"/>
			
				<linearGradient id="SVGID_00000110462916519777519300000003973524791368825243_" gradientUnits="userSpaceOnUse" x1="225.1965" y1="-130.2489" x2="280.2216" y2="-75.2236" gradientTransform="matrix(1 0 0 1 0 468)">
				<stop  offset="0" style="stop-color:#1ED6FF"/>
				<stop  offset="1" style="stop-color:#5D4AFF"/>
			</linearGradient>
			<path style="fill:url(#SVGID_00000110462916519777519300000003973524791368825243_);" d="M249.3,318.1c-6,0-11,4.8-11,11
				c0,6,4.8,10.8,11,10.8c12,0,21.8,9.8,21.8,21.8s-9.8,21.8-21.8,21.8s-21.8-9.8-21.8-21.8c0-6-4.8-11-11-11s-11,4.8-11,11
				c0,24.1,19.6,43.7,43.7,43.7s43.7-19.6,43.7-43.7S273.6,318.1,249.3,318.1L249.3,318.1z"/>
		</g>
	</g>
</g>
</svg>
