<?xml version="1.0" encoding="utf-8"?>
<!-- Generator: Adobe Illustrator 26.5.0, SVG Export Plug-In . SVG Version: 6.00 Build 0)  -->
<svg version="1.1" id="Layer_2_00000120521250722156961240000007148655508690598845_"
	 xmlns="http://www.w3.org/2000/svg" xmlns:xlink="http://www.w3.org/1999/xlink" x="0px" y="0px" viewBox="0 0 500 500"
	 style="enable-background:new 0 0 500 500;" xml:space="preserve">
<style type="text/css">
	.st0{opacity:0.5;}
	.st1{fill:#6D6D6C;}
	.st2{fill:url(#SVGID_1_);}
	.st3{fill:url(#SVGID_00000148624337388703248430000018329113642404697279_);}
	.st4{fill:url(#SVGID_00000138545792948753356470000014742182319213123983_);}
	.st5{fill:url(#SVGID_00000169546275279233517850000010343120318434098854_);}
	.st6{fill:url(#SVGID_00000062910486810074961810000002788779966382898605_);}
</style>
<g>
	<g class="st0">
		<path class="st1" d="M98.6,87.1c-1.4,4.6-2.2,9.5-2.2,14.6c0,27.8,22.6,50.6,50.6,50.6s50.6-22.6,50.6-50.4
			c0-6.5-1.2-12.8-3.5-18.4c0.2-0.9,0.3-1.8,0.3-2.9c0-0.3-0.2-0.6-0.2-1.1c7.4-2.5,12.8-9.4,12.8-17.7c0-10.3-8.3-18.6-18.6-18.6
			c-3.2,0-6.1,0.9-8.8,2.3c-1.4-8.9-9.1-15.7-18.3-15.7c-6.9,0-12.9,3.8-16.1,9.5c-3.2-5.7-9.2-9.5-16.1-9.5
			c-10.3,0-18.6,8.3-18.6,18.6c0,1.2,0.2,2.6,0.3,3.7c-1.5-0.5-3.2-0.8-4.9-0.8c-10.3,0-18.6,8.3-18.6,18.6
			C87,77.8,91.8,84.4,98.6,87.1L98.6,87.1z"/>
		<path class="st1" d="M365.7,152.2c27.8,0,50.6-22.6,50.6-50.4s-22.6-50.4-50.6-50.4s-50.6,22.6-50.6,50.4S337.9,152.2,365.7,152.2
			z"/>
		<path class="st1" d="M491,281.9L431,171.7c-3.7-6.6-10.5-10.5-17.5-10.8c-1.2-0.3-2.6-0.6-4-0.6h-87.9c-1.8,0-3.7,0.3-5.4,1.1
			c-5.7,1.2-10.8,4.8-13.7,10.3l-45,83.2l-45.2-83.2c-3.7-6.6-10.5-10.5-17.5-10.8c-1.2-0.3-2.6-0.6-4-0.6h-87.9
			c-1.8,0-3.7,0.3-5.5,1.1c-5.7,1.2-10.8,4.8-13.7,10.3L23.7,281.9c-4.6,8.6-2.6,18.9,4.2,25.2C16.2,312,8,323.6,8,336.9v121.3
			c0,3.5,2.9,6.5,6.5,6.5s6.5-2.9,6.5-6.5V336.9c0-10.8,8.8-19.4,19.5-19.4s19.4,8.8,19.4,19.4c0,3.5,2.9,6.5,6.5,6.5
			s6.5-2.9,6.5-6.5c0-12.5-7.2-23.4-17.5-28.7c2.2-1.7,4-3.8,5.4-6.3l24.9-45.8L86.1,447c0,13.1,10.6,23.5,23.5,23.5
			s23.5-10.6,23.5-23.5V297.6h29.4V447c0,13.1,10.6,23.5,23.5,23.5c12.9,0,23.5-10.6,23.5-23.5l-0.8-194.1l26.6,49
			c3.8,6.9,10.9,10.9,18.3,10.9c1.2,0,2.5-0.2,3.5-0.3c1.2,0.2,2.3,0.3,3.5,0.3c7.4,0,14.6-4,18.3-10.9l24.9-45.8l0.8,190.9
			c0,13.1,10.6,23.5,23.5,23.5s23.5-10.6,23.5-23.5V297.6h29.4V447c0,13.1,10.6,23.5,23.5,23.5s23.5-10.6,23.5-23.5l-0.5-194.1
			l26.6,49c3.8,6.9,10.9,10.9,18.3,10.9c3.4,0,6.8-0.8,10-2.5C492.7,304.8,496.5,292,491,281.9L491,281.9z"/>
		<path class="st1" d="M170.5,100.1c-8.8,0-16,6.8-16.8,15.2h-9.4c-0.9-8.6-8-15.2-16.8-15.2c-9.4,0-17.1,7.7-17.1,17.1
			s7.7,17.1,17.1,17.1c8.8,0,16-6.8,16.8-15.2h9.4c0.9,8.6,8,15.2,16.8,15.2c9.4,0,17.1-7.7,17.1-17.1S179.9,100.1,170.5,100.1z
			 M127.5,130.5c-7.5,0-13.5-6-13.5-13.5s6-13.5,13.5-13.5s13.5,6,13.5,13.5C141,124.5,135,130.5,127.5,130.5z M170.5,130.5
			c-7.5,0-13.5-6-13.5-13.5s6-13.5,13.5-13.5s13.5,6,13.5,13.5C184,124.5,178,130.5,170.5,130.5z"/>
		<path class="st1" d="M206.9,61.5c0-10.3-8.3-18.6-18.6-18.6c-3.2,0-6.1,0.9-8.8,2.3c-1.4-8.9-9.1-15.7-18.3-15.7
			c-6.9,0-12.9,3.8-16.1,9.5c-3.2-5.7-9.2-9.5-16.1-9.5c-10.3,0-18.6,8.3-18.6,18.6c0,1.2,0.2,2.6,0.3,3.7c-1.5-0.5-3.2-0.8-4.9-0.8
			c-10.3,0-18.6,8.3-18.6,18.6s8.3,18.6,18.6,18.6c2.2,0,4-0.5,6-1.1c2.8,6.8,9.4,11.5,17.2,11.5c8.6,0,16-6,18-14
			c1.4,0.3,2.8,0.6,4.3,0.6c2.2,0,4.3-0.5,6.1-1.1c1.8,8.3,9.2,14.6,18.1,14.6c10.3,0,18.6-8.3,18.6-18.6c0-0.3-0.2-0.6-0.2-1.1
			C201.4,76.7,206.9,69.8,206.9,61.5L206.9,61.5z"/>
	</g>
	<g>
		<g>
			<g>
				
					<linearGradient id="SVGID_1_" gradientUnits="userSpaceOnUse" x1="85.4597" y1="-376.9383" x2="205.3551" y2="-376.9383" gradientTransform="matrix(1 0 0 1 0 468)">
					<stop  offset="0" style="stop-color:#1ED6FF"/>
					<stop  offset="1" style="stop-color:#5D4AFF"/>
				</linearGradient>
				<path class="st2" d="M97,87.1c-1.4,4.6-2.2,9.5-2.2,14.6c0,27.8,22.6,50.6,50.6,50.6s50.6-22.6,50.6-50.4
					c0-6.5-1.2-12.8-3.5-18.4c0.2-0.9,0.3-1.8,0.3-2.9c0-0.3-0.2-0.6-0.2-1.1c7.4-2.5,12.8-9.4,12.8-17.7c0-10.3-8.3-18.6-18.6-18.6
					c-3.2,0-6.1,0.9-8.8,2.3c-1.4-8.9-9.1-15.7-18.3-15.7c-6.9,0-12.9,3.8-16.1,9.5c-3.2-5.7-9.2-9.5-16.1-9.5
					c-10.3,0-18.6,8.3-18.6,18.6c0,1.2,0.2,2.6,0.3,3.7c-1.5-0.5-3.2-0.8-4.9-0.8c-10.3,0-18.6,8.3-18.6,18.6
					C85.5,77.8,90.3,84.4,97,87.1L97,87.1z"/>
				
					<linearGradient id="SVGID_00000081621916026338555570000004957811414696612504_" gradientUnits="userSpaceOnUse" x1="313.7068" y1="-366.2553" x2="414.6956" y2="-366.2553" gradientTransform="matrix(1 0 0 1 0 468)">
					<stop  offset="0" style="stop-color:#1ED6FF"/>
					<stop  offset="1" style="stop-color:#5D4AFF"/>
				</linearGradient>
				<path style="fill:url(#SVGID_00000081621916026338555570000004957811414696612504_);" d="M364.2,152.2
					c27.8,0,50.6-22.6,50.6-50.4s-22.6-50.4-50.6-50.4c-28,0-50.6,22.6-50.6,50.4S336.3,152.2,364.2,152.2z"/>
				
					<linearGradient id="SVGID_00000125579049035276120700000004873520192675436956_" gradientUnits="userSpaceOnUse" x1="6.4824" y1="-152.5955" x2="491.9805" y2="-152.5955" gradientTransform="matrix(1 0 0 1 0 468)">
					<stop  offset="0" style="stop-color:#1ED6FF"/>
					<stop  offset="1" style="stop-color:#5D4AFF"/>
				</linearGradient>
				<path style="fill:url(#SVGID_00000125579049035276120700000004873520192675436956_);" d="M489.4,281.9l-59.9-110.2
					c-3.7-6.6-10.5-10.5-17.5-10.8c-1.2-0.3-2.6-0.6-4-0.6h-87.9c-1.8,0-3.7,0.3-5.4,1.1c-5.7,1.2-10.8,4.8-13.7,10.3l-45,83.2
					l-45.2-83.2c-3.7-6.6-10.5-10.5-17.5-10.8c-1.2-0.3-2.6-0.6-4-0.6h-87.9c-1.8,0-3.7,0.3-5.5,1.1c-5.7,1.2-10.8,4.8-13.7,10.3
					L22.2,281.9c-4.6,8.6-2.6,18.9,4.2,25.2C14.6,312,6.5,323.6,6.5,336.9v121.3c0,3.5,2.9,6.5,6.5,6.5s6.5-2.9,6.5-6.5V336.9
					c0-10.8,8.8-19.4,19.5-19.4s19.4,8.8,19.4,19.4c0,3.5,2.9,6.5,6.5,6.5c3.5,0,6.5-2.9,6.5-6.5c0-12.5-7.2-23.4-17.5-28.7
					c2.2-1.7,4-3.8,5.4-6.3L84,256.1L84.6,447c0,13.1,10.6,23.5,23.5,23.5s23.5-10.6,23.5-23.5V297.6H161V447
					c0,13.1,10.6,23.5,23.5,23.5S208,459.9,208,447l-0.8-194.1l26.6,49c3.8,6.9,10.9,10.9,18.3,10.9c1.2,0,2.5-0.2,3.5-0.3
					c1.2,0.2,2.3,0.3,3.5,0.3c7.4,0,14.6-4,18.3-10.9l24.9-45.8l0.8,190.9c0,13.1,10.6,23.5,23.5,23.5s23.5-10.6,23.5-23.5V297.6
					h29.4V447c0,13.1,10.6,23.5,23.5,23.5s23.5-10.6,23.5-23.5l-0.5-194.1l26.6,49c3.8,6.9,10.9,10.9,18.3,10.9
					c3.4,0,6.8-0.8,10-2.5C491.1,304.8,495,292,489.4,281.9L489.4,281.9z"/>
			</g>
			<g>
				
					<linearGradient id="SVGID_00000096778628443001564240000015281469656205236642_" gradientUnits="userSpaceOnUse" x1="109.0084" y1="-350.8841" x2="186.0181" y2="-350.8841" gradientTransform="matrix(1 0 0 1 0 468)">
					<stop  offset="0" style="stop-color:#0BB1D3"/>
					<stop  offset="1" style="stop-color:#9F2FFF"/>
				</linearGradient>
				<path style="fill:url(#SVGID_00000096778628443001564240000015281469656205236642_);" d="M169,100.1c-8.8,0-16,6.8-16.8,15.2
					h-9.4c-0.9-8.6-8-15.2-16.8-15.2c-9.4,0-17.1,7.7-17.1,17.1s7.7,17.1,17.1,17.1c8.8,0,16-6.8,16.8-15.2h9.4
					c0.9,8.6,8,15.2,16.8,15.2c9.4,0,17.1-7.7,17.1-17.1S178.3,100.1,169,100.1z M125.9,130.5c-7.5,0-13.5-6-13.5-13.5
					s6-13.5,13.5-13.5s13.5,6,13.5,13.5C139.4,124.5,133.4,130.5,125.9,130.5z M169,130.5c-7.5,0-13.5-6-13.5-13.5s6-13.5,13.5-13.5
					c7.5,0,13.5,6,13.5,13.5C182.5,124.5,176.5,130.5,169,130.5z"/>
				
					<linearGradient id="SVGID_00000055689962078519001970000007359740044949379734_" gradientUnits="userSpaceOnUse" x1="85.4443" y1="-403.8379" x2="205.3398" y2="-403.8379" gradientTransform="matrix(1 0 0 1 0 468)">
					<stop  offset="0" style="stop-color:#0BB1D3"/>
					<stop  offset="1" style="stop-color:#9F2FFF"/>
				</linearGradient>
				<path style="fill:url(#SVGID_00000055689962078519001970000007359740044949379734_);" d="M205.4,61.5c0-10.3-8.3-18.6-18.6-18.6
					c-3.2,0-6.1,0.9-8.8,2.3c-1.4-8.9-9.1-15.7-18.3-15.7c-6.9,0-12.9,3.8-16.1,9.5c-3.2-5.7-9.2-9.5-16.1-9.5
					c-10.3,0-18.6,8.3-18.6,18.6c0,1.2,0.2,2.6,0.3,3.7c-1.5-0.5-3.2-0.8-4.9-0.8c-10.3,0-18.6,8.3-18.6,18.6s8.3,18.6,18.6,18.6
					c2.2,0,4-0.5,6-1.1c2.8,6.8,9.4,11.5,17.2,11.5c8.6,0,16-6,18-14c1.4,0.3,2.8,0.6,4.3,0.6c2.2,0,4.3-0.5,6.1-1.1
					c1.8,8.3,9.2,14.6,18.1,14.6c10.3,0,18.6-8.3,18.6-18.6c0-0.3-0.2-0.6-0.2-1.1C199.9,76.7,205.4,69.8,205.4,61.5L205.4,61.5z"/>
			</g>
		</g>
	</g>
</g>
</svg>
