<?xml version="1.0" encoding="utf-8"?>
<!-- Generator: Adobe Illustrator 26.5.0, SVG Export Plug-In . SVG Version: 6.00 Build 0)  -->
<svg version="1.1" id="Layer_2_00000139273783494406621670000007949715707069981099_"
	 xmlns="http://www.w3.org/2000/svg" xmlns:xlink="http://www.w3.org/1999/xlink" x="0px" y="0px" viewBox="0 0 500 500"
	 style="enable-background:new 0 0 500 500;" xml:space="preserve">
<style type="text/css">
	.st0{opacity:0.5;}
	.st1{fill:#6D6D6C;}
	.st2{fill:url(#SVGID_1_);}
	.st3{fill:url(#SVGID_00000152962307668461089630000014405675797382994850_);}
	.st4{fill:url(#SVGID_00000106857425267041351150000015122986738870392750_);}
	.st5{fill:url(#SVGID_00000160163011328739175580000013625585776586828673_);}
</style>
<g>
	<g class="st0">
		<path class="st1" d="M205.5,233c0-28.4-23.1-51.5-51.5-51.5s-51.5,23.1-51.5,51.5c0,5.3,4.3,9.6,9.6,9.6s9.6-4.3,9.6-9.6
			c0-17.8,14.5-32.2,32.2-32.2S186,215.4,186,233c0,5.3,4.3,9.6,9.6,9.6S205.5,238.5,205.5,233L205.5,233z"/>
		<path class="st1" d="M347.5,181.5c-28.4,0-51.5,23.1-51.5,51.5c0,5.3,4.3,9.6,9.6,9.6s9.6-4.3,9.6-9.6c0-17.8,14.5-32.2,32.2-32.2
			s32.2,14.5,32.2,32.2c0,5.3,4.3,9.6,9.6,9.6s9.6-4.3,9.6-9.6C399,204.6,375.9,181.5,347.5,181.5L347.5,181.5z"/>
		<path class="st1" d="M250.7,278.5c-30.4,0-55.3,24.8-55.3,55.3c0,30.4,24.8,55.3,55.3,55.3s55.3-24.8,55.3-55.3
			S281.3,278.5,250.7,278.5L250.7,278.5z M250.7,369.7c-19.8,0-35.9-16.1-35.9-35.9s16.1-35.9,35.9-35.9c19.8,0,35.9,16.1,35.9,35.9
			C286.7,353.6,270.5,369.7,250.7,369.7L250.7,369.7z"/>
		<path class="st1" d="M497.2,237.3c0-29.1-23.7-53-53-53c-1.4,0-3,0.1-4.5,0.3C409.9,109.4,336.6,56,250.9,56
			S91.7,109.4,61.8,184.6c-1.6-0.1-3-0.3-4.6-0.3c-29.1,0-53,23.7-53,53c0,26.7,19.8,48.8,45.5,52.4c14.8,97.6,99.2,172.7,201,172.7
			s186.2-75.1,201-172.7C477.4,286,497.2,263.9,497.2,237.3L497.2,237.3z M23.6,237.3c0-17.9,14.1-32.6,31.7-33.6
			c-3.4,12.3-5.9,25.1-6.9,38.3c-0.1,1.6-0.3,3.2-0.4,4.9c-0.1,1.1-0.1,2.3-0.1,3.4c-0.1,3-0.3,5.9-0.3,8.9c0,3.4,0.1,7,0.3,10.3
			C33.8,265.5,23.6,252.5,23.6,237.3L23.6,237.3z M250.7,443C156.3,443,78.2,371.4,68,279.7c0-0.1,0-0.1,0-0.3
			c-0.1-1.7-0.3-3.4-0.4-5.2c0-0.1,0-0.4,0-0.6c-0.1-2.3-0.3-4.6-0.4-6.9c-0.1-2.6-0.1-5-0.1-7.6c0-2.9,0.1-5.6,0.3-8.5
			c0.1-1.4,0.1-3,0.3-4.5c0.1-1.1,0.1-2.2,0.3-3.3c0.1-2.2,0.4-4.5,0.7-6.6v-0.1c1.6-12.6,4.6-25.1,8.9-37.5
			c0.1-0.4,0.1-0.9,0.3-1.3C103.1,126.4,171,75.3,250.6,75.1c4.9,0.4,45.5,5.9,45.6,44.4c0,19.2-14.8,29.3-28.7,32.2
			c-13.6,2.9-26.6-1-30-9c-2.2-4.9-7.8-7.2-12.8-5c-4.9,2.2-7.2,7.8-5,12.8c5.9,13.5,21,21.7,38.8,21.7c4.2,0,8.5-0.4,12.9-1.3
			c20.4-4.3,44.2-20.2,44.1-51.1c0-15.4-4.7-27.3-11.6-36.5C359.7,99.9,404.3,142.6,424,197c0.1,0.6,0.1,1.3,0.4,1.9
			c6.9,19.8,10.3,40.1,10.3,60.4c0,6.5-0.4,13.1-1.1,20.2c0,0.3,0,0.6,0,0.9C422.8,371.8,345,443,250.7,443L250.7,443z M453.7,269.5
			c0.1-3.4,0.3-6.9,0.3-10.3c0-19.2-2.7-37.8-7.8-55.4c17.7,1,31.6,15.6,31.6,33.6C477.8,252.5,467.6,265.5,453.7,269.5L453.7,269.5
			z"/>
	</g>
	<g>
		<g>
			
				<linearGradient id="SVGID_1_" gradientUnits="userSpaceOnUse" x1="100.9915" y1="-255.9378" x2="204.0629" y2="-255.9378" gradientTransform="matrix(1 0 0 1 0 468)">
				<stop  offset="0" style="stop-color:#1ED6FF"/>
				<stop  offset="1" style="stop-color:#5D4AFF"/>
			</linearGradient>
			<path class="st2" d="M204.1,233c0-28.4-23.1-51.5-51.5-51.5S101,204.6,101,233c0,5.3,4.3,9.6,9.6,9.6c5.3,0,9.6-4.3,9.6-9.6
				c0-17.8,14.5-32.2,32.2-32.2s32.2,14.5,32.2,32.2c0,5.3,4.3,9.6,9.6,9.6S204.1,238.5,204.1,233L204.1,233z"/>
			
				<linearGradient id="SVGID_00000029735577237375300580000014641436307168248209_" gradientUnits="userSpaceOnUse" x1="294.5016" y1="-255.9378" x2="397.5731" y2="-255.9378" gradientTransform="matrix(1 0 0 1 0 468)">
				<stop  offset="0" style="stop-color:#1ED6FF"/>
				<stop  offset="1" style="stop-color:#5D4AFF"/>
			</linearGradient>
			<path style="fill:url(#SVGID_00000029735577237375300580000014641436307168248209_);" d="M346,181.5c-28.4,0-51.5,23.1-51.5,51.5
				c0,5.3,4.3,9.6,9.6,9.6c5.3,0,9.6-4.3,9.6-9.6c0-17.8,14.5-32.2,32.2-32.2c17.7,0,32.2,14.5,32.2,32.2c0,5.3,4.3,9.6,9.6,9.6
				c5.3,0,9.6-4.3,9.6-9.6C397.6,204.6,374.5,181.5,346,181.5L346,181.5z"/>
			
				<linearGradient id="SVGID_00000182516351698437217690000002741384084971750021_" gradientUnits="userSpaceOnUse" x1="194.0141" y1="-134.2044" x2="304.5503" y2="-134.2044" gradientTransform="matrix(1 0 0 1 0 468)">
				<stop  offset="0" style="stop-color:#1ED6FF"/>
				<stop  offset="1" style="stop-color:#5D4AFF"/>
			</linearGradient>
			<path style="fill:url(#SVGID_00000182516351698437217690000002741384084971750021_);" d="M249.3,278.5
				c-30.4,0-55.3,24.8-55.3,55.3c0,30.4,24.8,55.3,55.3,55.3c30.4,0,55.3-24.8,55.3-55.3S279.9,278.5,249.3,278.5L249.3,278.5z
				 M249.3,369.7c-19.8,0-35.9-16.1-35.9-35.9s16.1-35.9,35.9-35.9s35.9,16.1,35.9,35.9C285.3,353.6,269.1,369.7,249.3,369.7
				L249.3,369.7z"/>
			
				<linearGradient id="SVGID_00000069388263263940460920000015466627682872813997_" gradientUnits="userSpaceOnUse" x1="2.8009" y1="-208.7805" x2="495.7636" y2="-208.7805" gradientTransform="matrix(1 0 0 1 0 468)">
				<stop  offset="0" style="stop-color:#1ED6FF"/>
				<stop  offset="1" style="stop-color:#5D4AFF"/>
			</linearGradient>
			<path style="fill:url(#SVGID_00000069388263263940460920000015466627682872813997_);" d="M495.8,237.3c0-29.1-23.7-53-53-53
				c-1.4,0-3,0.1-4.5,0.3C408.5,109.4,335.1,56,249.4,56S90.2,109.4,60.4,184.6c-1.6-0.1-3-0.3-4.6-0.3c-29.1,0-53,23.7-53,53
				c0,26.7,19.8,48.8,45.5,52.4c14.8,97.6,99.2,172.7,201,172.7s186.2-75.1,201-172.7C476,286,495.8,263.9,495.8,237.3L495.8,237.3z
				 M22.2,237.3c0-17.9,14.1-32.6,31.7-33.6c-3.4,12.3-5.9,25.1-6.9,38.3c-0.1,1.6-0.3,3.2-0.4,4.9c-0.1,1.1-0.1,2.3-0.1,3.4
				c-0.1,3-0.3,5.9-0.3,8.9c0,3.4,0.1,7,0.3,10.3C32.4,265.5,22.2,252.5,22.2,237.3L22.2,237.3z M249.3,443
				c-94.5,0-172.6-71.6-182.7-163.4c0-0.1,0-0.1,0-0.3c-0.1-1.7-0.3-3.4-0.4-5.2c0-0.1,0-0.4,0-0.6c-0.1-2.3-0.3-4.6-0.4-6.9
				c-0.1-2.6-0.1-5-0.1-7.6c0-2.9,0.1-5.6,0.3-8.5c0.1-1.4,0.1-3,0.3-4.5c0.1-1.1,0.1-2.2,0.3-3.3c0.1-2.2,0.4-4.5,0.7-6.6v-0.1
				c1.6-12.6,4.6-25.1,8.9-37.5c0.1-0.4,0.1-0.9,0.3-1.3c25.4-71.1,93.3-122.2,172.8-122.3c4.9,0.4,45.5,5.9,45.7,44.4
				c0,19.2-14.8,29.3-28.7,32.2c-13.6,2.9-26.6-1-30-9c-2.2-4.9-7.8-7.2-12.8-5c-4.9,2.2-7.2,7.8-5,12.8c5.9,13.5,21,21.7,38.8,21.7
				c4.2,0,8.5-0.4,12.9-1.3c20.4-4.3,44.2-20.2,44.1-51.1c0-15.4-4.7-27.3-11.6-36.5c55.8,16.8,100.5,59.4,120.2,113.8
				c0.1,0.6,0.1,1.3,0.4,1.9c6.9,19.8,10.3,40.1,10.3,60.4c0,6.5-0.4,13.1-1.1,20.2c0,0.3,0,0.6,0,0.9
				C421.4,371.8,343.6,443,249.3,443L249.3,443z M452.3,269.5c0.1-3.4,0.3-6.9,0.3-10.3c0-19.2-2.7-37.8-7.8-55.4
				c17.7,1,31.6,15.6,31.6,33.6C476.4,252.5,466.2,265.5,452.3,269.5L452.3,269.5z"/>
		</g>
	</g>
</g>
</svg>
