<?xml version="1.0" encoding="utf-8"?>
<!-- Generator: Adobe Illustrator 26.5.0, SVG Export Plug-In . SVG Version: 6.00 Build 0)  -->
<svg version="1.1" id="Layer_2_00000077318517989899031230000016755319439039999663_"
	 xmlns="http://www.w3.org/2000/svg" xmlns:xlink="http://www.w3.org/1999/xlink" x="0px" y="0px" viewBox="0 0 500 500"
	 style="enable-background:new 0 0 500 500;" xml:space="preserve">
<style type="text/css">
	.st0{opacity:0.5;}
	.st1{fill:#6D6D6C;}
	.st2{fill:url(#SVGID_1_);}
	.st3{fill:url(#SVGID_00000009583915653454306110000005047177419278362548_);}
	.st4{fill:url(#SVGID_00000086682010254399902600000000126201512418416017_);}
	.st5{fill:url(#SVGID_00000170997608127087970690000010845854902129081228_);}
	.st6{fill:url(#SVGID_00000005971828571385093000000014658200116516962698_);}
	.st7{fill:url(#SVGID_00000111892960779672979360000016817200386865177987_);}
	.st8{fill:url(#SVGID_00000075856330008319477460000005343941856461091713_);}
	.st9{fill:url(#SVGID_00000013911217615492743430000012299738765403367048_);}
	.st10{fill:url(#SVGID_00000042712745449982173470000015777968902598633622_);}
</style>
<g>
	<g class="st0">
		<path class="st1" d="M198.9,394.1c-95.8,0-173.8-77.9-173.8-173.6S103.1,46.8,198.9,46.8s173.6,77.9,173.6,173.8
			c0,7.3-0.5,14.5-1.4,21.6c5.9-1,12-1.4,18-1.4h1.4c0.5-6.5,1-13.4,1-20.1C391.5,114.4,305.1,28,199.1,28S6.3,114.2,6.3,220.5
			s86.4,192.5,192.6,192.5c24.8,0,48.2-4.8,70-13.3c-1.8-6.1-3-12.3-3.8-18.8C244.6,389.4,222.4,394.1,198.9,394.1L198.9,394.1z"/>
		<path class="st1" d="M375.7,352.4c6.5-0.6,8.1-4.8,7.5-9.3c-0.6-4.5-3.8-7.8-9.6-7.2c-5.9,0.8-8.1,4.8-7.5,9.3
			C366.7,349.7,369,353,375.7,352.4L375.7,352.4z"/>
		<path class="st1" d="M402.7,352.4c6.5,0.6,9.1-2.6,9.6-7.2c0.6-4.5-1.8-8.5-7.5-9.3s-9.1,2.6-9.6,7.2
			C394.5,347.6,396,351.7,402.7,352.4z"/>
		<path class="st1" d="M389.1,259.6c-58.6,0-106.2,47.6-106.2,106.2S330.5,472,389.1,472s106.2-47.6,106.2-106.2
			S447.7,259.6,389.1,259.6z M389.1,303.8c19.6,0,35.6,9.4,35.6,32.9c0,13.1-5,22.8-12.9,28.9c-1.3,1-2.2,2.4-2.4,4l-0.5,5
			c-0.3,3-2.4,5.6-5.4,6.4c-9.6,2.6-19.5,2.6-29.1,0c-2.9-0.8-5.1-3.4-5.4-6.4l-0.5-5c-0.2-1.6-1-3-2.4-4
			c-7.8-6.1-12.9-15.8-12.9-28.9C353.5,313.2,369.5,303.8,389.1,303.8L389.1,303.8z M443.7,384.5c-0.6,1.4-2.1,2.6-3.8,3.2
			c-1.4,0.5-3.5,0.5-6.1-0.3c-1.4-0.3-2.9-0.2-4.2,0.5l-29.5,14.7l13.1,6.5c1.3,0.6,2.7,0.8,4.2,0.5c1.8-0.5,4.3-0.8,6.9,0.2
			c6.1,2.2,6.2,5.7,5.3,8.5c-0.6,1.9-2.1,3.2-4,3.7c-0.2,1-0.5,1.9-1.3,3c-1,1.4-2.4,2.4-3.8,2.7c-0.3,0-0.6,0.2-1,0.2
			c-1.3,0-2.6-0.5-3.8-1.3c-1.3-0.8-2.4-2.4-3.2-4.6c-0.5-1.4-1.6-2.7-2.9-3.4l-20.3-10.2L369,418.5c-1.4,0.6-2.4,1.9-2.9,3.4
			c-0.8,2.2-1.9,3.8-3.2,4.6c-1.3,0.8-2.6,1.3-3.8,1.3c-0.3,0-0.6,0-1-0.2c-1.6-0.3-2.9-1.3-3.8-2.7c-0.6-1-1.1-1.9-1.3-3
			c-1.9-0.5-3.2-1.8-4-3.7c-1-2.6-0.8-6.2,5.3-8.5c2.4-1,5.1-0.6,6.9-0.2c1.4,0.3,2.9,0.2,4.2-0.5l13.1-6.5l-29.5-14.7
			c-1.3-0.6-2.9-0.8-4.2-0.5c-2.6,0.6-4.5,0.8-6.1,0.3c-1.8-0.6-3.2-1.8-3.8-3.2c-0.6-1.4-0.8-3-0.2-4.8c0.3-1.1,1-2.1,1.6-2.7
			c-0.6-1.8-0.5-3.7,0.6-5.3c1.6-2.2,4.5-4.3,9.9-0.8c2.2,1.4,3.7,3.8,4.3,5.6c0.5,1.3,1.4,2.2,2.7,2.9l35.5,17.7l35.5-17.7
			c1.3-0.6,2.2-1.6,2.7-2.9c0.8-1.8,2.1-4.2,4.3-5.6c5.4-3.5,8.3-1.6,9.9,0.8c1.1,1.6,1.3,3.5,0.6,5.3c0.6,0.6,1.3,1.6,1.6,2.7
			C444.4,381.4,444.4,383,443.7,384.5L443.7,384.5z"/>
		<path class="st1" d="M386.1,367.9h6.1c1.9,0,3.4-2.1,2.6-3.8l-3.8-8.8c-0.6-1.6-3-1.6-3.7,0l-3.8,8.8
			C382.7,366,384.2,367.9,386.1,367.9z"/>
		<path class="st1" d="M247.4,244.9c34.5-2.2,62.1-29.4,65-63.6l-111.6,7c20.9,12.5,35.9,32.7,41.5,56.7
			C244.3,245,245.8,245,247.4,244.9L247.4,244.9z"/>
		<path class="st1" d="M238.8,106.1c-34.5,2.1-62.1,29.4-65,63.6l137.4-8.5C304.1,127.5,273.3,103.9,238.8,106.1L238.8,106.1z"/>
		<path class="st1" d="M124.3,327.9c31,15.2,68.5,5.3,87.8-23L88.5,244.3C78.1,277,93.3,312.8,124.3,327.9z"/>
		<path class="st1" d="M185.6,203c-10.1-5-20.8-7.2-31.3-7c-22,0.2-43.6,11-56.7,30.2l123.6,60.7C231.6,254,216.6,218.2,185.6,203
			L185.6,203z"/>
	</g>
	<g>
		<g>
			
				<linearGradient id="SVGID_1_" gradientUnits="userSpaceOnUse" x1="4.682" y1="-247.5468" x2="389.9079" y2="-247.5468" gradientTransform="matrix(1 0 0 1 0 468)">
				<stop  offset="0" style="stop-color:#1ED6FF"/>
				<stop  offset="1" style="stop-color:#5D4AFF"/>
			</linearGradient>
			<path class="st2" d="M197.3,394.1c-95.8,0-173.8-77.9-173.8-173.6S101.5,46.8,197.3,46.8s173.6,77.9,173.6,173.8
				c0,7.3-0.5,14.5-1.4,21.6c5.9-1,12-1.4,18-1.4h1.4c0.5-6.5,1-13.4,1-20.1C389.9,114.4,303.5,28,197.5,28S4.7,114.2,4.7,220.5
				s86.4,192.5,192.6,192.5c24.8,0,48.2-4.8,70-13.3c-1.8-6.1-3-12.3-3.8-18.8C243,389.4,220.8,394.1,197.3,394.1L197.3,394.1z"/>
			
				<linearGradient id="SVGID_00000026879421338039928480000007748408233396555138_" gradientUnits="userSpaceOnUse" x1="364.2835" y1="-123.8496" x2="381.7139" y2="-123.8496" gradientTransform="matrix(1 0 0 1 0 468)">
				<stop  offset="0" style="stop-color:#1ED6FF"/>
				<stop  offset="1" style="stop-color:#5D4AFF"/>
			</linearGradient>
			<path style="fill:url(#SVGID_00000026879421338039928480000007748408233396555138_);" d="M374.1,352.4c6.5-0.6,8.1-4.8,7.5-9.3
				c-0.6-4.5-3.8-7.8-9.6-7.2c-5.9,0.8-8.1,4.8-7.5,9.3C365.2,349.7,367.4,353,374.1,352.4L374.1,352.4z"/>
			
				<linearGradient id="SVGID_00000181797217358134785510000000801543818717298565_" gradientUnits="userSpaceOnUse" x1="393.3745" y1="-123.8679" x2="410.7888" y2="-123.8679" gradientTransform="matrix(1 0 0 1 0 468)">
				<stop  offset="0" style="stop-color:#1ED6FF"/>
				<stop  offset="1" style="stop-color:#5D4AFF"/>
			</linearGradient>
			<path style="fill:url(#SVGID_00000181797217358134785510000000801543818717298565_);" d="M401.1,352.4c6.5,0.6,9.1-2.6,9.6-7.2
				c0.6-4.5-1.8-8.5-7.5-9.3c-5.7-0.8-9.1,2.6-9.6,7.2C392.9,347.6,394.4,351.7,401.1,352.4z"/>
			
				<linearGradient id="SVGID_00000049922238989796701640000005691410303425569434_" gradientUnits="userSpaceOnUse" x1="281.3036" y1="-102.2086" x2="493.7209" y2="-102.2086" gradientTransform="matrix(1 0 0 1 0 468)">
				<stop  offset="0" style="stop-color:#1ED6FF"/>
				<stop  offset="1" style="stop-color:#5D4AFF"/>
			</linearGradient>
			<path style="fill:url(#SVGID_00000049922238989796701640000005691410303425569434_);" d="M387.5,259.6
				c-58.6,0-106.2,47.6-106.2,106.2S328.9,472,387.5,472s106.2-47.6,106.2-106.2S446.1,259.6,387.5,259.6z M387.5,303.8
				c19.6,0,35.6,9.4,35.6,32.9c0,13.1-5,22.8-12.9,28.9c-1.3,1-2.2,2.4-2.4,4l-0.5,5c-0.3,3-2.4,5.6-5.4,6.4
				c-9.6,2.6-19.5,2.6-29.1,0c-2.9-0.8-5.1-3.4-5.4-6.4l-0.5-5c-0.2-1.6-1-3-2.4-4c-7.8-6.1-12.9-15.8-12.9-28.9
				C351.9,313.2,367.9,303.8,387.5,303.8L387.5,303.8z M442.1,384.5c-0.6,1.4-2.1,2.6-3.8,3.2c-1.4,0.5-3.5,0.5-6.1-0.3
				c-1.4-0.3-2.9-0.2-4.2,0.5l-29.5,14.7l13.1,6.5c1.3,0.6,2.7,0.8,4.2,0.5c1.8-0.5,4.3-0.8,6.9,0.2c6.1,2.2,6.2,5.7,5.3,8.5
				c-0.6,1.9-2.1,3.2-4,3.7c-0.2,1-0.5,1.9-1.3,3c-1,1.4-2.4,2.4-3.8,2.7c-0.3,0-0.6,0.2-1,0.2c-1.3,0-2.6-0.5-3.8-1.3
				c-1.3-0.8-2.4-2.4-3.2-4.6c-0.5-1.4-1.6-2.7-2.9-3.4l-20.3-10.2l-20.3,10.2c-1.4,0.6-2.4,1.9-2.9,3.4c-0.8,2.2-1.9,3.8-3.2,4.6
				c-1.3,0.8-2.6,1.3-3.8,1.3c-0.3,0-0.6,0-1-0.2c-1.6-0.3-2.9-1.3-3.8-2.7c-0.6-1-1.1-1.9-1.3-3c-1.9-0.5-3.2-1.8-4-3.7
				c-1-2.6-0.8-6.2,5.3-8.5c2.4-1,5.1-0.6,6.9-0.2c1.4,0.3,2.9,0.2,4.2-0.5l13.1-6.5l-29.5-14.7c-1.3-0.6-2.9-0.8-4.2-0.5
				c-2.6,0.6-4.5,0.8-6.1,0.3c-1.8-0.6-3.2-1.8-3.8-3.2c-0.6-1.4-0.8-3-0.2-4.8c0.3-1.1,1-2.1,1.6-2.7c-0.6-1.8-0.5-3.7,0.6-5.3
				c1.6-2.2,4.5-4.3,9.9-0.8c2.2,1.4,3.7,3.8,4.3,5.6c0.5,1.3,1.4,2.2,2.7,2.9l35.5,17.7l35.5-17.7c1.3-0.6,2.2-1.6,2.7-2.9
				c0.8-1.8,2.1-4.2,4.3-5.6c5.4-3.5,8.3-1.6,9.9,0.8c1.1,1.6,1.3,3.5,0.6,5.3c0.6,0.6,1.3,1.6,1.6,2.7
				C442.8,381.4,442.8,383,442.1,384.5L442.1,384.5z"/>
			
				<linearGradient id="SVGID_00000009585513516054444370000015875933324499792012_" gradientUnits="userSpaceOnUse" x1="381.7118" y1="-107.0399" x2="393.3606" y2="-107.0399" gradientTransform="matrix(1 0 0 1 0 468)">
				<stop  offset="0" style="stop-color:#1ED6FF"/>
				<stop  offset="1" style="stop-color:#5D4AFF"/>
			</linearGradient>
			<path style="fill:url(#SVGID_00000009585513516054444370000015875933324499792012_);" d="M384.5,367.9h6.1c1.9,0,3.4-2.1,2.6-3.8
				l-3.8-8.8c-0.6-1.6-3-1.6-3.7,0l-3.8,8.8C381.1,366,382.6,367.9,384.5,367.9z"/>
			
				<linearGradient id="SVGID_00000053531244314363345480000005964385717104586921_" gradientUnits="userSpaceOnUse" x1="199.2115" y1="-254.8137" x2="310.8504" y2="-254.8137" gradientTransform="matrix(1 0 0 1 0 468)">
				<stop  offset="0" style="stop-color:#1ED6FF"/>
				<stop  offset="1" style="stop-color:#5D4AFF"/>
			</linearGradient>
			<path style="fill:url(#SVGID_00000053531244314363345480000005964385717104586921_);" d="M245.8,244.9
				c34.5-2.2,62.1-29.4,65-63.6l-111.6,7c20.9,12.5,35.9,32.7,41.5,56.7C242.7,245,244.3,245,245.8,244.9L245.8,244.9z"/>
			
				<linearGradient id="SVGID_00000078759983398743829840000007687912380273294752_" gradientUnits="userSpaceOnUse" x1="172.2201" y1="-330.1911" x2="309.5726" y2="-330.1911" gradientTransform="matrix(1 0 0 1 0 468)">
				<stop  offset="0" style="stop-color:#1ED6FF"/>
				<stop  offset="1" style="stop-color:#5D4AFF"/>
			</linearGradient>
			<path style="fill:url(#SVGID_00000078759983398743829840000007687912380273294752_);" d="M237.2,106.1
				c-34.5,2.1-62.1,29.4-65,63.6l137.4-8.5C302.5,127.5,271.7,103.9,237.2,106.1L237.2,106.1z"/>
			
				<linearGradient id="SVGID_00000021106310706719050820000016603499037195768233_" gradientUnits="userSpaceOnUse" x1="83.6839" y1="-178.3631" x2="210.5511" y2="-178.3631" gradientTransform="matrix(1 0 0 1 0 468)">
				<stop  offset="0" style="stop-color:#1ED6FF"/>
				<stop  offset="1" style="stop-color:#5D4AFF"/>
			</linearGradient>
			<path style="fill:url(#SVGID_00000021106310706719050820000016603499037195768233_);" d="M122.7,327.9c31,15.2,68.5,5.3,87.8-23
				L86.9,244.3C76.6,277,91.7,312.8,122.7,327.9z"/>
			
				<linearGradient id="SVGID_00000075140224093916793800000007796420869084662676_" gradientUnits="userSpaceOnUse" x1="96.0374" y1="-226.5486" x2="222.923" y2="-226.5486" gradientTransform="matrix(1 0 0 1 0 468)">
				<stop  offset="0" style="stop-color:#1ED6FF"/>
				<stop  offset="1" style="stop-color:#5D4AFF"/>
			</linearGradient>
			<path style="fill:url(#SVGID_00000075140224093916793800000007796420869084662676_);" d="M184,203c-10.1-5-20.8-7.2-31.3-7
				c-22,0.2-43.6,11-56.7,30.2l123.6,60.7C230,254,215,218.2,184,203L184,203z"/>
		</g>
	</g>
</g>
</svg>
